M48
; DRILL file KiCad 10.0.1 date 2026-06-23T07:49:55
; FORMAT={-:-/ absolute / metric / decimal}
; #@! TF.CreationDate,2026-06-23T07:49:55+01:00
; #@! TF.GenerationSoftware,Kicad,Pcbnew,10.0.1
; #@! TF.FileFunction,Plated,1,4,PTH
FMAT,2
METRIC
; #@! TA.AperFunction,Plated,PTH,ViaDrill
T1C0.400
; #@! TA.AperFunction,Plated,PTH,ComponentDrill
T2C0.800
; #@! TA.AperFunction,Plated,PTH,ComponentDrill
T3C1.000
%
G90
G05
T1
X120.905Y-72.701
X123.444Y-71.976
X125.984Y-71.251
X128.525Y-69.907
X129.922Y-69.018
X131.065Y-70.526
X150.496Y-72.701
X153.163Y-71.976
X155.83Y-71.251
X158.243Y-68.33
X179.579Y-72.701
X182.373Y-71.976
X184.786Y-71.251
X186.945Y-53.524
X186.985Y-50.401
X187.326Y-67.605
X194.184Y-49.333
X200.915Y-58.731
X202.058Y-24.589
X204.979Y-36.252
X207.138Y-52.254
X207.138Y-59.964
X208.662Y-35.337
X208.662Y-72.701
X211.075Y-34.887
X211.202Y-71.976
X213.538Y-34.437
X213.615Y-16.801
X213.869Y-71.251
X216.282Y-66.88
X220.854Y-71.251
X221.997Y-24.139
X221.997Y-28.473
X222.886Y-34.437
X223.775Y-57.334
X224.537Y-67.605
X225.045Y-32.696
X225.934Y-68.33
X228.855Y-56.699
X230.125Y-56.064
X231.141Y-69.055
X232.411Y-66.732
X233.3Y-69.78
X233.554Y-27.616
X234.951Y-66.097
X236.094Y-32.696
X237.11Y-56.953
X237.872Y-72.701
X238.761Y-56.064
X238.761Y-57.969
X240.412Y-70.526
X240.412Y-71.976
X240.92Y-28.378
X241.926Y-47.206
X242.952Y-71.251
X243.206Y-58.477
X244.857Y-36.125
X245.111Y-66.097
X246.254Y-41.422
X246.762Y-57.969
X252.35Y-29.648
X252.35Y-56.953
X253.075Y-34.728
X255.144Y-72.701
X257.684Y-47.227
X258.7Y-51.783
X259.208Y-29.521
X260.224Y-46.502
X261.24Y-52.508
X262.637Y-45.777
X265.177Y-45.015
X266.447Y-72.701
X267.717Y-47.936
X267.844Y-28.505
X269.622Y-72.066
X270.384Y-47.809
X271.834Y-71.251
X272.797Y-60.636
X274.067Y-65.589
T2
X195.758Y-18.651
X195.758Y-26.271
X195.758Y-30.97
X195.758Y-38.59
X197.023Y-42.781
X197.023Y-50.401
X197.023Y-54.667
X197.023Y-62.287
X198.298Y-18.651
X198.298Y-26.271
X198.298Y-30.97
X198.298Y-38.59
X199.563Y-42.781
X199.563Y-50.401
X199.563Y-54.667
X199.563Y-62.287
X200.838Y-18.651
X200.838Y-26.271
X200.838Y-30.97
X200.838Y-38.59
X202.103Y-42.781
X202.103Y-50.401
X202.103Y-54.667
X202.103Y-62.287
X203.378Y-18.651
X203.378Y-26.271
X203.378Y-30.97
X203.378Y-38.59
X204.643Y-42.781
X204.643Y-50.401
X204.643Y-54.667
X204.643Y-62.287
X205.918Y-18.651
X205.918Y-26.271
X205.918Y-30.97
X205.918Y-38.59
X207.183Y-42.781
X207.183Y-50.401
X207.183Y-54.667
X207.183Y-62.287
X208.458Y-18.651
X208.458Y-26.271
X208.458Y-30.97
X208.458Y-38.59
X209.723Y-42.781
X209.723Y-50.401
X209.723Y-54.667
X209.723Y-62.287
X210.998Y-18.651
X210.998Y-26.271
X210.998Y-30.97
X210.998Y-38.59
X212.263Y-42.781
X212.263Y-50.401
X212.263Y-54.667
X212.263Y-62.287
X213.538Y-18.651
X213.538Y-26.271
X213.538Y-30.97
X213.538Y-38.59
X215.346Y-50.349
X215.346Y-62.267
X216.616Y-26.219
X216.703Y-38.527
X217.846Y-50.349
X217.846Y-62.267
X219.116Y-26.219
X219.203Y-38.527
X222.296Y-30.97
X222.296Y-38.59
X222.296Y-42.781
X222.296Y-50.401
X222.296Y-54.667
X222.296Y-62.287
X224.836Y-18.651
X224.836Y-26.271
X224.836Y-30.97
X224.836Y-38.59
X224.836Y-42.781
X224.836Y-50.401
X224.836Y-54.667
X224.836Y-62.287
X227.376Y-18.651
X227.376Y-26.271
X227.376Y-30.97
X227.376Y-38.59
X227.376Y-42.781
X227.376Y-50.401
X227.376Y-54.667
X227.376Y-62.287
X229.916Y-18.651
X229.916Y-26.271
X229.916Y-30.97
X229.916Y-38.59
X229.916Y-42.781
X229.916Y-50.401
X229.916Y-54.667
X229.916Y-62.287
X232.456Y-18.651
X232.456Y-26.271
X232.456Y-30.97
X232.456Y-38.59
X232.456Y-42.781
X232.456Y-50.401
X232.456Y-54.667
X232.456Y-62.287
X234.996Y-18.651
X234.996Y-26.271
X234.996Y-30.97
X234.996Y-38.59
X234.996Y-42.781
X234.996Y-50.401
X234.996Y-54.667
X234.996Y-62.287
X237.536Y-18.651
X237.536Y-26.271
X237.536Y-30.97
X237.536Y-38.59
X237.536Y-42.781
X237.536Y-50.401
X237.536Y-54.667
X237.536Y-62.287
X240.076Y-18.651
X240.076Y-26.271
X240.076Y-30.97
X240.076Y-38.59
X240.076Y-42.781
X240.076Y-50.401
X240.076Y-54.667
X240.076Y-62.287
X242.616Y-18.651
X242.616Y-26.271
X242.616Y-30.97
X242.616Y-38.59
X242.616Y-42.781
X242.616Y-50.401
X242.616Y-54.667
X242.616Y-62.287
X245.156Y-30.97
X245.156Y-38.59
X245.156Y-42.781
X245.156Y-50.401
X245.156Y-54.667
X245.156Y-62.287
X245.786Y-26.164
X248.286Y-26.164
X248.326Y-38.483
X248.326Y-50.294
X248.326Y-62.18
X250.826Y-38.483
X250.826Y-50.294
X250.826Y-62.18
X253.919Y-18.651
X253.919Y-26.271
X253.919Y-42.781
X253.919Y-50.401
X255.184Y-30.97
X255.184Y-38.59
X255.184Y-54.667
X255.184Y-62.287
X256.459Y-18.651
X256.459Y-26.271
X256.459Y-42.781
X256.459Y-50.401
X257.724Y-30.97
X257.724Y-38.59
X257.724Y-54.667
X257.724Y-62.287
X258.999Y-18.651
X258.999Y-26.271
X258.999Y-42.781
X258.999Y-50.401
X260.264Y-30.97
X260.264Y-38.59
X260.264Y-54.667
X260.264Y-62.287
X261.539Y-18.651
X261.539Y-26.271
X261.539Y-42.781
X261.539Y-50.401
X262.804Y-30.97
X262.804Y-38.59
X262.804Y-54.667
X262.804Y-62.287
X264.079Y-18.651
X264.079Y-26.271
X264.079Y-42.781
X264.079Y-50.401
X265.344Y-30.97
X265.344Y-38.59
X265.344Y-54.667
X265.344Y-62.287
X266.619Y-18.651
X266.619Y-26.271
X266.619Y-42.781
X266.619Y-50.401
X267.884Y-30.97
X267.884Y-38.59
X267.884Y-54.667
X267.884Y-62.287
X269.159Y-18.651
X269.159Y-26.271
X269.159Y-42.781
X269.159Y-50.401
X270.424Y-30.97
X270.424Y-38.59
X270.424Y-54.667
X270.424Y-62.287
X271.699Y-18.651
X271.699Y-26.271
X271.699Y-42.781
X271.699Y-50.401
X273.599Y-38.61
X273.599Y-62.307
X274.869Y-26.291
X274.869Y-50.421
X276.099Y-38.61
X276.099Y-62.307
X277.369Y-26.291
X277.369Y-50.421
T3
X105.918Y-20.066
X108.458Y-20.066
X110.744Y-53.848
X110.998Y-20.066
X113.284Y-53.848
X113.538Y-20.066
X113.878Y-82.734
X115.824Y-53.848
X116.078Y-20.066
X116.418Y-82.734
X118.364Y-53.848
X118.618Y-20.066
X118.958Y-82.734
X120.904Y-53.848
X121.158Y-20.066
X121.498Y-82.734
X123.444Y-53.848
X123.698Y-20.066
X124.038Y-82.734
X125.984Y-53.848
X126.238Y-20.066
X126.578Y-82.734
X128.524Y-53.848
X128.778Y-20.066
X129.118Y-82.734
X131.064Y-53.848
X131.318Y-20.066
X133.604Y-53.848
X133.858Y-20.066
X136.144Y-53.848
X136.398Y-20.066
X138.684Y-53.848
X138.938Y-20.066
X141.224Y-53.848
X141.478Y-20.066
X142.969Y-82.734
X143.764Y-53.848
X144.018Y-20.066
X145.509Y-82.734
X146.304Y-53.848
X148.049Y-82.734
X150.589Y-82.734
X153.129Y-82.734
X154.033Y-19.989
X155.669Y-82.734
X156.573Y-19.989
X158.209Y-82.734
X159.113Y-19.989
X161.653Y-19.989
X164.193Y-19.989
X166.733Y-19.989
X169.273Y-19.989
X171.813Y-19.989
X172.059Y-82.734
X174.353Y-19.989
X174.599Y-82.734
X176.893Y-19.989
X177.139Y-82.734
X179.433Y-19.989
X179.679Y-82.734
X181.973Y-19.989
X182.219Y-82.734
X184.513Y-19.989
X184.759Y-82.734
X187.053Y-19.989
X187.299Y-82.734
X189.593Y-19.989
X192.133Y-19.989
X201.149Y-82.734
X203.689Y-82.734
X206.229Y-82.734
X208.769Y-82.734
X211.309Y-82.734
X213.849Y-82.734
X216.389Y-82.734
X230.239Y-82.734
X232.779Y-82.734
X235.319Y-82.734
X237.859Y-82.734
X240.399Y-82.734
X242.939Y-82.734
X245.479Y-82.734
X259.33Y-82.734
X261.87Y-82.734
X264.41Y-82.734
X266.95Y-82.734
X269.49Y-82.734
X272.03Y-82.734
X274.57Y-82.734
X283.719Y-55.8
X283.719Y-58.34
X283.719Y-60.88
X283.719Y-63.42
X283.719Y-65.96
X283.719Y-68.5
X283.719Y-71.04
X283.719Y-73.58
X283.719Y-76.12
X283.719Y-78.66
X287.265Y-55.8
X287.265Y-58.34
X287.265Y-60.88
X287.265Y-63.42
X287.265Y-65.96
X287.265Y-68.5
X287.265Y-71.04
X287.265Y-73.58
X287.265Y-76.12
X287.265Y-78.66
X288.799Y-23.552
X288.805Y-19.986
X289.807Y-55.8
X289.807Y-58.34
X289.807Y-60.88
X289.807Y-63.42
X289.807Y-65.96
X289.807Y-68.5
X289.807Y-71.04
X289.807Y-73.58
X289.807Y-76.12
X289.807Y-78.66
X290.323Y-35.739
X290.323Y-39.554
X290.328Y-43.364
X291.339Y-23.552
X291.345Y-19.986
X292.863Y-35.739
X292.863Y-39.554
X292.868Y-43.364
X293.371Y-55.8
X293.371Y-58.34
X293.371Y-60.88
X293.371Y-63.42
X293.371Y-65.96
X293.371Y-68.5
X293.371Y-71.04
X293.371Y-73.58
X293.371Y-76.12
X293.371Y-78.66
X293.879Y-23.552
X293.885Y-19.986
M30
