M48
; DRILL file {KiCad 7.0.10} date Saturday, January 31, 2026 at 08:41:08 AM
; FORMAT={-:-/ absolute / inch / decimal}
; #@! TF.CreationDate,2026-01-31T08:41:08+00:00
; #@! TF.GenerationSoftware,Kicad,Pcbnew,7.0.10
; #@! TF.FileFunction,Plated,1,4,PTH
FMAT,2
INCH
; #@! TA.AperFunction,Plated,PTH,ViaDrill
T1C0.0157
; #@! TA.AperFunction,Plated,PTH,ComponentDrill
T2C0.0315
; #@! TA.AperFunction,Plated,PTH,ComponentDrill
T3C0.0394
%
G90
G05
T1
X4.76Y-2.9073
X4.86Y-3.0073
X4.96Y-3.1073
X5.06Y-2.5072
X5.08Y-2.7073
X5.16Y-2.3973
X5.36Y-1.5373
X5.47Y-1.4273
X5.57Y-1.3273
X5.93Y-2.9073
X6.03Y-3.0073
X6.07Y-1.7873
X6.1287Y-3.1086
X6.16Y-1.6873
X6.23Y-2.8073
X6.8643Y-1.1973
X6.93Y-1.3873
X6.93Y-2.9073
X6.97Y-1.1473
X7.0643Y-1.0915
X7.08Y-2.9073
X7.1643Y-1.0415
X7.17Y-3.0073
X7.19Y-2.3473
X7.24Y-1.8373
X7.25Y-1.5873
X7.2643Y-0.9873
X7.27Y-3.1073
X7.3643Y-0.9473
X7.37Y-2.6073
X7.4643Y-0.8973
X7.52Y-2.2773
X7.58Y-0.9973
X7.58Y-1.6378
X7.63Y-0.9473
X7.63Y-1.6773
X7.68Y-0.8973
X7.68Y-1.5373
X7.71Y-1.3873
X7.71Y-1.7873
X7.72Y-0.9973
X7.87Y-1.0973
X7.9Y-2.0373
X7.9Y-2.3973
X7.92Y-1.2973
X7.94Y-1.8373
X7.95Y-1.1973
X7.95Y-1.3973
X7.99Y-1.6373
X7.99Y-1.9773
X8.02Y-1.4873
X8.05Y-0.9673
X8.1Y-3.0073
X8.1794Y-1.5378
X8.18Y-3.1073
X8.22Y-0.7873
X8.22Y-1.5073
X8.22Y-1.6573
X8.22Y-2.9073
X8.2486Y-1.0415
X8.25Y-1.8773
X8.28Y-1.9373
X8.2857Y-1.1515
X8.29Y-1.5873
X8.32Y-3.0073
X8.3294Y-1.3378
X8.33Y-0.7873
X8.39Y-2.8073
X8.42Y-3.1073
X8.53Y-2.7073
X8.58Y-2.5073
X8.63Y-1.7373
X8.89Y-2.6073
X8.9594Y-1.6378
X8.96Y-2.8073
X9.0194Y-1.3378
X9.02Y-2.7073
X9.22Y-1.5273
X9.29Y-2.5073
X9.32Y-1.0173
X9.3259Y-2.3514
X9.36Y-2.9073
X9.38Y-1.2073
X9.43Y-1.4773
X9.46Y-3.0073
X9.56Y-1.3073
X9.56Y-1.7573
X9.56Y-3.1073
X9.6Y-1.0073
X9.6Y-1.7973
X9.64Y-0.9073
X9.64Y-1.3073
X9.66Y-2.8073
X9.68Y-0.8073
X9.68Y-1.6173
X9.72Y-1.0173
X9.72Y-1.1573
X9.74Y-0.9673
X9.75Y-1.2073
X9.78Y-1.4073
X9.8684Y-1.5273
X10.0Y-1.1473
X10.01Y-1.4073
X10.05Y-1.2073
X10.05Y-1.3373
X10.09Y-1.2973
X10.2659Y-2.2514
X10.33Y-1.0073
X10.33Y-1.7573
X10.51Y-2.9073
X10.61Y-3.0073
X10.64Y-1.8573
X10.65Y-0.7173
X10.66Y-1.7073
X10.71Y-3.1073
X10.77Y-2.5073
X10.78Y-1.7373
X10.81Y-2.7073
X10.92Y-1.4773
X11.32Y-1.1073
X11.52Y-1.2673
T2
X6.41Y-1.3373
X6.41Y-1.4373
X6.41Y-1.5373
X6.41Y-1.6373
X6.41Y-1.7373
X6.41Y-1.8373
X6.41Y-1.9373
X6.41Y-2.0373
X6.61Y-1.2073
X6.7085Y-1.2073
X6.71Y-1.3373
X6.71Y-1.4373
X6.71Y-1.5373
X6.71Y-1.6373
X6.71Y-1.7373
X6.71Y-1.8373
X6.71Y-1.9373
X6.71Y-2.0373
X7.1017Y-1.3875
X7.1017Y-1.4875
X7.1017Y-1.5875
X7.1017Y-1.6875
X7.1017Y-1.7875
X7.1017Y-1.8875
X7.1017Y-1.9875
X7.3108Y-1.2573
X7.4017Y-1.3875
X7.4017Y-1.4875
X7.4017Y-1.5875
X7.4017Y-1.6875
X7.4017Y-1.7875
X7.4017Y-1.8875
X7.4017Y-1.9875
X7.4092Y-1.2573
X7.7934Y-1.2378
X7.7934Y-1.3378
X7.7934Y-1.4378
X7.7934Y-1.5378
X7.7934Y-1.6378
X7.7934Y-1.7378
X7.7934Y-1.8378
X7.7934Y-1.9378
X7.7934Y-2.0378
X7.7934Y-2.1378
X8.0008Y-1.1073
X8.0934Y-1.2378
X8.0934Y-1.3378
X8.0934Y-1.4378
X8.0934Y-1.5378
X8.0934Y-1.6378
X8.0934Y-1.7378
X8.0934Y-1.8378
X8.0934Y-1.9378
X8.0934Y-2.0378
X8.0934Y-2.1378
X8.0992Y-1.1073
X8.485Y-1.2378
X8.485Y-1.3378
X8.485Y-1.4378
X8.485Y-1.5378
X8.485Y-1.6378
X8.485Y-1.7378
X8.485Y-1.8378
X8.485Y-1.9378
X8.485Y-2.0378
X8.485Y-2.1378
X8.6908Y-1.1073
X8.785Y-1.2378
X8.785Y-1.3378
X8.785Y-1.4378
X8.785Y-1.5378
X8.785Y-1.6378
X8.785Y-1.7378
X8.785Y-1.8378
X8.785Y-1.9378
X8.785Y-2.0378
X8.785Y-2.1378
X8.7892Y-1.1073
X9.1767Y-0.8073
X9.1767Y-0.9073
X9.1767Y-1.0073
X9.1767Y-1.1073
X9.1767Y-1.2073
X9.1767Y-1.3073
X9.1767Y-1.4073
X9.1767Y-1.7071
X9.1767Y-1.8071
X9.1767Y-1.9071
X9.1767Y-2.0071
X9.1767Y-2.1071
X9.1767Y-2.2071
X9.1767Y-2.3071
X9.1767Y-2.4071
X9.38Y-0.6773
X9.38Y-1.5773
X9.4767Y-0.8073
X9.4767Y-0.9073
X9.4767Y-1.0073
X9.4767Y-1.1073
X9.4767Y-1.2073
X9.4767Y-1.3073
X9.4767Y-1.4073
X9.4767Y-1.7071
X9.4767Y-1.8071
X9.4767Y-1.9071
X9.4767Y-2.0071
X9.4767Y-2.1071
X9.4767Y-2.2071
X9.4767Y-2.3071
X9.4767Y-2.4071
X9.4785Y-0.6773
X9.4785Y-1.5773
X9.8684Y-0.8073
X9.8684Y-0.9073
X9.8684Y-1.0073
X9.8684Y-1.1073
X9.8684Y-1.2073
X9.8684Y-1.3073
X9.8684Y-1.4073
X9.8684Y-1.7071
X9.8684Y-1.8071
X9.8684Y-1.9071
X9.8684Y-2.0071
X9.8684Y-2.1071
X9.8684Y-2.2071
X9.8684Y-2.3071
X9.8684Y-2.4071
X10.07Y-0.6773
X10.0708Y-1.5773
X10.1684Y-0.8073
X10.1684Y-0.9073
X10.1684Y-1.0073
X10.1684Y-1.1073
X10.1684Y-1.2073
X10.1684Y-1.3073
X10.1684Y-1.4073
X10.1684Y-1.7071
X10.1684Y-1.8071
X10.1684Y-1.9071
X10.1684Y-2.0071
X10.1684Y-2.1071
X10.1684Y-2.2071
X10.1684Y-2.3071
X10.1684Y-2.4071
X10.1685Y-0.6773
X10.1692Y-1.5773
X10.56Y-0.8073
X10.56Y-0.9073
X10.56Y-1.0073
X10.56Y-1.1073
X10.56Y-1.2073
X10.56Y-1.3073
X10.56Y-1.4073
X10.56Y-1.7573
X10.56Y-1.8573
X10.56Y-1.9573
X10.56Y-2.0573
X10.56Y-2.1573
X10.56Y-2.2573
X10.56Y-2.3573
X10.76Y-0.6773
X10.7608Y-1.6273
X10.8585Y-0.6773
X10.8592Y-1.6273
X10.86Y-0.8073
X10.86Y-0.9073
X10.86Y-1.0073
X10.86Y-1.1073
X10.86Y-1.2073
X10.86Y-1.3073
X10.86Y-1.4073
X10.86Y-1.7573
X10.86Y-1.8573
X10.86Y-1.9573
X10.86Y-2.0573
X10.86Y-2.1573
X10.86Y-2.2573
X10.86Y-2.3573
T3
X4.17Y-0.79
X4.27Y-0.79
X4.36Y-2.12
X4.37Y-0.79
X4.46Y-2.12
X4.47Y-0.79
X4.4834Y-3.2573
X4.56Y-2.12
X4.57Y-0.79
X4.5834Y-3.2573
X4.66Y-2.12
X4.67Y-0.79
X4.6834Y-3.2573
X4.76Y-2.12
X4.77Y-0.79
X4.7834Y-3.2573
X4.86Y-2.12
X4.87Y-0.79
X4.8834Y-3.2573
X4.96Y-2.12
X4.97Y-0.79
X4.9834Y-3.2573
X5.06Y-2.12
X5.07Y-0.79
X5.0834Y-3.2573
X5.16Y-2.12
X5.17Y-0.79
X5.26Y-2.12
X5.27Y-0.79
X5.36Y-2.12
X5.37Y-0.79
X5.46Y-2.12
X5.47Y-0.79
X5.56Y-2.12
X5.57Y-0.79
X5.6287Y-3.2573
X5.66Y-2.12
X5.67Y-0.79
X5.7287Y-3.2573
X5.76Y-2.12
X5.8287Y-3.2573
X5.9287Y-3.2573
X6.0287Y-3.2573
X6.0643Y-0.787
X6.1287Y-3.2573
X6.1643Y-0.787
X6.2287Y-3.2573
X6.2643Y-0.787
X6.3643Y-0.787
X6.4643Y-0.787
X6.5643Y-0.787
X6.6643Y-0.787
X6.7643Y-0.787
X6.774Y-3.2573
X6.8643Y-0.787
X6.874Y-3.2573
X6.9643Y-0.787
X6.974Y-3.2573
X7.0643Y-0.787
X7.074Y-3.2573
X7.1643Y-0.787
X7.174Y-3.2573
X7.2643Y-0.787
X7.274Y-3.2573
X7.3643Y-0.787
X7.374Y-3.2573
X7.4643Y-0.787
X7.5643Y-0.787
X7.9193Y-3.2573
X8.0193Y-3.2573
X8.1193Y-3.2573
X8.2193Y-3.2573
X8.3193Y-3.2573
X8.4193Y-3.2573
X8.5193Y-3.2573
X9.0645Y-3.2573
X9.1645Y-3.2573
X9.2645Y-3.2573
X9.3645Y-3.2573
X9.4645Y-3.2573
X9.5645Y-3.2573
X9.6645Y-3.2573
X10.2098Y-3.2573
X10.3098Y-3.2573
X10.4098Y-3.2573
X10.5098Y-3.2573
X10.6098Y-3.2573
X10.7098Y-3.2573
X10.8098Y-3.2573
X11.17Y-2.1969
X11.17Y-2.2969
X11.17Y-2.3969
X11.17Y-2.4969
X11.17Y-2.5969
X11.17Y-2.6969
X11.17Y-2.7969
X11.17Y-2.8969
X11.17Y-2.9969
X11.17Y-3.0969
X11.3096Y-2.1969
X11.3096Y-2.2969
X11.3096Y-2.3969
X11.3096Y-2.4969
X11.3096Y-2.5969
X11.3096Y-2.6969
X11.3096Y-2.7969
X11.3096Y-2.8969
X11.3096Y-2.9969
X11.3096Y-3.0969
X11.37Y-0.9273
X11.3703Y-0.7869
X11.4097Y-2.1969
X11.4097Y-2.2969
X11.4097Y-2.3969
X11.4097Y-2.4969
X11.4097Y-2.5969
X11.4097Y-2.6969
X11.4097Y-2.7969
X11.4097Y-2.8969
X11.4097Y-2.9969
X11.4097Y-3.0969
X11.43Y-1.4071
X11.43Y-1.5573
X11.4302Y-1.7073
X11.47Y-0.9273
X11.4703Y-0.7869
X11.53Y-1.4071
X11.53Y-1.5573
X11.5302Y-1.7073
X11.55Y-2.1969
X11.55Y-2.2969
X11.55Y-2.3969
X11.55Y-2.4969
X11.55Y-2.5969
X11.55Y-2.6969
X11.55Y-2.7969
X11.55Y-2.8969
X11.55Y-2.9969
X11.55Y-3.0969
X11.57Y-0.9273
X11.5703Y-0.7869
M30
