%TF.GenerationSoftware,KiCad,Pcbnew,10.0.1*%
%TF.CreationDate,2026-06-23T07:49:44+01:00*%
%TF.ProjectId,BeanBoardSPI,4265616e-426f-4617-9264-5350492e6b69,rev?*%
%TF.SameCoordinates,Original*%
%TF.FileFunction,Soldermask,Bot*%
%TF.FilePolarity,Negative*%
%FSLAX46Y46*%
G04 Gerber Fmt 4.6, Leading zero omitted, Abs format (unit mm)*
G04 Created by KiCad (PCBNEW 10.0.1) date 2026-06-23 07:49:44*
%MOMM*%
%LPD*%
G01*
G04 APERTURE LIST*
G04 Aperture macros list*
%AMRoundRect*
0 Rectangle with rounded corners*
0 $1 Rounding radius*
0 $2 $3 $4 $5 $6 $7 $8 $9 X,Y pos of 4 corners*
0 Add a 4 corners polygon primitive as box body*
4,1,4,$2,$3,$4,$5,$6,$7,$8,$9,$2,$3,0*
0 Add four circle primitives for the rounded corners*
1,1,$1+$1,$2,$3*
1,1,$1+$1,$4,$5*
1,1,$1+$1,$6,$7*
1,1,$1+$1,$8,$9*
0 Add four rect primitives between the rounded corners*
20,1,$1+$1,$2,$3,$4,$5,0*
20,1,$1+$1,$4,$5,$6,$7,0*
20,1,$1+$1,$6,$7,$8,$9,0*
20,1,$1+$1,$8,$9,$2,$3,0*%
G04 Aperture macros list end*
%ADD10C,1.600000*%
%ADD11R,1.700000X1.700000*%
%ADD12O,1.700000X1.700000*%
%ADD13RoundRect,0.250000X-0.550000X0.550000X-0.550000X-0.550000X0.550000X-0.550000X0.550000X0.550000X0*%
G04 APERTURE END LIST*
D10*
%TO.C,C2*%
X277368745Y-50421114D03*
X274868745Y-50421114D03*
%TD*%
D11*
%TO.C,J5*%
X293370745Y-55800335D03*
D12*
X293370745Y-58340335D03*
X293370745Y-60880335D03*
X293370745Y-63420335D03*
X293370745Y-65960335D03*
X293370745Y-68500335D03*
X293370745Y-71040335D03*
X293370745Y-73580335D03*
X293370745Y-76120335D03*
X293370745Y-78660335D03*
%TD*%
D11*
%TO.C,JP2*%
X290322745Y-39554314D03*
D12*
X292862745Y-39554314D03*
%TD*%
D11*
%TO.C,J11*%
X142968504Y-82734314D03*
D12*
X145508504Y-82734314D03*
X148048504Y-82734314D03*
X150588504Y-82734314D03*
X153128504Y-82734314D03*
X155668504Y-82734314D03*
X158208504Y-82734314D03*
%TD*%
D10*
%TO.C,U10*%
X271698745Y-50401114D03*
X269158745Y-50401114D03*
X266618745Y-50401114D03*
X264078745Y-50401114D03*
X261538745Y-50401114D03*
X258998745Y-50401114D03*
X256458745Y-50401114D03*
X253918745Y-50401114D03*
X253918745Y-42781114D03*
X256458745Y-42781114D03*
X258998745Y-42781114D03*
X261538745Y-42781114D03*
X264078745Y-42781114D03*
X266618745Y-42781114D03*
X269158745Y-42781114D03*
D13*
X271698745Y-42781114D03*
%TD*%
D11*
%TO.C,J8*%
X288798745Y-23552314D03*
D12*
X291338745Y-23552314D03*
X293878745Y-23552314D03*
%TD*%
D13*
%TO.C,U7*%
X245155745Y-42781114D03*
D10*
X242615745Y-42781114D03*
X240075745Y-42781114D03*
X237535745Y-42781114D03*
X234995745Y-42781114D03*
X232455745Y-42781114D03*
X229915745Y-42781114D03*
X227375745Y-42781114D03*
X224835745Y-42781114D03*
X222295745Y-42781114D03*
X222295745Y-50401114D03*
X224835745Y-50401114D03*
X227375745Y-50401114D03*
X229915745Y-50401114D03*
X232455745Y-50401114D03*
X234995745Y-50401114D03*
X237535745Y-50401114D03*
X240075745Y-50401114D03*
X242615745Y-50401114D03*
X245155745Y-50401114D03*
%TD*%
D11*
%TO.C,J14*%
X230239434Y-82734314D03*
D12*
X232779434Y-82734314D03*
X235319434Y-82734314D03*
X237859434Y-82734314D03*
X240399434Y-82734314D03*
X242939434Y-82734314D03*
X245479434Y-82734314D03*
%TD*%
D10*
%TO.C,C5*%
X216615745Y-26219314D03*
X219115745Y-26219314D03*
%TD*%
%TO.C,C11*%
X215345745Y-50349314D03*
X217845745Y-50349314D03*
%TD*%
%TO.C,C3*%
X245785745Y-26164114D03*
X248285745Y-26164114D03*
%TD*%
D11*
%TO.C,J12*%
X172058814Y-82734314D03*
D12*
X174598814Y-82734314D03*
X177138814Y-82734314D03*
X179678814Y-82734314D03*
X182218814Y-82734314D03*
X184758814Y-82734314D03*
X187298814Y-82734314D03*
%TD*%
D11*
%TO.C,J4*%
X289806558Y-55800335D03*
D12*
X289806558Y-58340335D03*
X289806558Y-60880335D03*
X289806558Y-63420335D03*
X289806558Y-65960335D03*
X289806558Y-68500335D03*
X289806558Y-71040335D03*
X289806558Y-73580335D03*
X289806558Y-76120335D03*
X289806558Y-78660335D03*
%TD*%
D11*
%TO.C,J15*%
X259329745Y-82734314D03*
D12*
X261869745Y-82734314D03*
X264409745Y-82734314D03*
X266949745Y-82734314D03*
X269489745Y-82734314D03*
X272029745Y-82734314D03*
X274569745Y-82734314D03*
%TD*%
D11*
%TO.C,J7*%
X283718745Y-55800335D03*
D12*
X283718745Y-58340335D03*
X283718745Y-60880335D03*
X283718745Y-63420335D03*
X283718745Y-65960335D03*
X283718745Y-68500335D03*
X283718745Y-71040335D03*
X283718745Y-73580335D03*
X283718745Y-76120335D03*
X283718745Y-78660335D03*
%TD*%
D10*
%TO.C,U12*%
X271698745Y-26271114D03*
X269158745Y-26271114D03*
X266618745Y-26271114D03*
X264078745Y-26271114D03*
X261538745Y-26271114D03*
X258998745Y-26271114D03*
X256458745Y-26271114D03*
X253918745Y-26271114D03*
X253918745Y-18651114D03*
X256458745Y-18651114D03*
X258998745Y-18651114D03*
X261538745Y-18651114D03*
X264078745Y-18651114D03*
X266618745Y-18651114D03*
X269158745Y-18651114D03*
D13*
X271698745Y-18651114D03*
%TD*%
D10*
%TO.C,U4*%
X270423745Y-38590114D03*
X267883745Y-38590114D03*
X265343745Y-38590114D03*
X262803745Y-38590114D03*
X260263745Y-38590114D03*
X257723745Y-38590114D03*
X255183745Y-38590114D03*
X255183745Y-30970114D03*
X257723745Y-30970114D03*
X260263745Y-30970114D03*
X262803745Y-30970114D03*
X265343745Y-30970114D03*
X267883745Y-30970114D03*
D13*
X270423745Y-30970114D03*
%TD*%
%TO.C,U11*%
X213537745Y-18651114D03*
D10*
X210997745Y-18651114D03*
X208457745Y-18651114D03*
X205917745Y-18651114D03*
X203377745Y-18651114D03*
X200837745Y-18651114D03*
X198297745Y-18651114D03*
X195757745Y-18651114D03*
X195757745Y-26271114D03*
X198297745Y-26271114D03*
X200837745Y-26271114D03*
X203377745Y-26271114D03*
X205917745Y-26271114D03*
X208457745Y-26271114D03*
X210997745Y-26271114D03*
X213537745Y-26271114D03*
%TD*%
D11*
%TO.C,J2*%
X154033298Y-19989406D03*
D12*
X156573298Y-19989406D03*
X159113298Y-19989406D03*
X161653298Y-19989406D03*
X164193298Y-19989406D03*
X166733298Y-19989406D03*
X169273298Y-19989406D03*
X171813298Y-19989406D03*
X174353298Y-19989406D03*
X176893298Y-19989406D03*
X179433298Y-19989406D03*
X181973298Y-19989406D03*
X184513298Y-19989406D03*
X187053298Y-19989406D03*
X189593298Y-19989406D03*
X192133298Y-19989406D03*
%TD*%
D10*
%TO.C,C10*%
X250825745Y-50294114D03*
X248325745Y-50294114D03*
%TD*%
D11*
%TO.C,J6*%
X287265073Y-55800335D03*
D12*
X287265073Y-58340335D03*
X287265073Y-60880335D03*
X287265073Y-63420335D03*
X287265073Y-65960335D03*
X287265073Y-68500335D03*
X287265073Y-71040335D03*
X287265073Y-73580335D03*
X287265073Y-76120335D03*
X287265073Y-78660335D03*
%TD*%
D13*
%TO.C,U9*%
X242615745Y-18651114D03*
D10*
X240075745Y-18651114D03*
X237535745Y-18651114D03*
X234995745Y-18651114D03*
X232455745Y-18651114D03*
X229915745Y-18651114D03*
X227375745Y-18651114D03*
X224835745Y-18651114D03*
X224835745Y-26271114D03*
X227375745Y-26271114D03*
X229915745Y-26271114D03*
X232455745Y-26271114D03*
X234995745Y-26271114D03*
X237535745Y-26271114D03*
X240075745Y-26271114D03*
X242615745Y-26271114D03*
%TD*%
D11*
%TO.C,J13*%
X201149124Y-82734314D03*
D12*
X203689124Y-82734314D03*
X206229124Y-82734314D03*
X208769124Y-82734314D03*
X211309124Y-82734314D03*
X213849124Y-82734314D03*
X216389124Y-82734314D03*
%TD*%
D11*
%TO.C,JP1*%
X290327745Y-43364314D03*
D12*
X292867745Y-43364314D03*
%TD*%
D10*
%TO.C,C7*%
X276098745Y-38610114D03*
X273598745Y-38610114D03*
%TD*%
D13*
%TO.C,U3*%
X213537745Y-30970114D03*
D10*
X210997745Y-30970114D03*
X208457745Y-30970114D03*
X205917745Y-30970114D03*
X203377745Y-30970114D03*
X200837745Y-30970114D03*
X198297745Y-30970114D03*
X195757745Y-30970114D03*
X195757745Y-38590114D03*
X198297745Y-38590114D03*
X200837745Y-38590114D03*
X203377745Y-38590114D03*
X205917745Y-38590114D03*
X208457745Y-38590114D03*
X210997745Y-38590114D03*
X213537745Y-38590114D03*
%TD*%
%TO.C,C12*%
X217845745Y-62267314D03*
X215345745Y-62267314D03*
%TD*%
D13*
%TO.C,U2*%
X212262745Y-54667314D03*
D10*
X209722745Y-54667314D03*
X207182745Y-54667314D03*
X204642745Y-54667314D03*
X202102745Y-54667314D03*
X199562745Y-54667314D03*
X197022745Y-54667314D03*
X197022745Y-62287314D03*
X199562745Y-62287314D03*
X202102745Y-62287314D03*
X204642745Y-62287314D03*
X207182745Y-62287314D03*
X209722745Y-62287314D03*
X212262745Y-62287314D03*
%TD*%
D11*
%TO.C,JP3*%
X290322745Y-35739314D03*
D12*
X292862745Y-35739314D03*
%TD*%
D10*
%TO.C,C1*%
X277368745Y-26291114D03*
X274868745Y-26291114D03*
%TD*%
%TO.C,C4*%
X250825745Y-62180314D03*
X248325745Y-62180314D03*
%TD*%
D11*
%TO.C,J1*%
X144018000Y-20066000D03*
D12*
X141478000Y-20066000D03*
X138938000Y-20066000D03*
X136398000Y-20066000D03*
X133858000Y-20066000D03*
X131318000Y-20066000D03*
X128778000Y-20066000D03*
X126238000Y-20066000D03*
X123698000Y-20066000D03*
X121158000Y-20066000D03*
X118618000Y-20066000D03*
X116078000Y-20066000D03*
X113538000Y-20066000D03*
X110998000Y-20066000D03*
X108458000Y-20066000D03*
X105918000Y-20066000D03*
%TD*%
D10*
%TO.C,C9*%
X250825745Y-38483114D03*
X248325745Y-38483114D03*
%TD*%
D11*
%TO.C,J3*%
X288805334Y-19986097D03*
D12*
X291345334Y-19986097D03*
X293885334Y-19986097D03*
%TD*%
D11*
%TO.C,J10*%
X113878194Y-82734314D03*
D12*
X116418194Y-82734314D03*
X118958194Y-82734314D03*
X121498194Y-82734314D03*
X124038194Y-82734314D03*
X126578194Y-82734314D03*
X129118194Y-82734314D03*
%TD*%
D13*
%TO.C,U8*%
X245155745Y-30970114D03*
D10*
X242615745Y-30970114D03*
X240075745Y-30970114D03*
X237535745Y-30970114D03*
X234995745Y-30970114D03*
X232455745Y-30970114D03*
X229915745Y-30970114D03*
X227375745Y-30970114D03*
X224835745Y-30970114D03*
X222295745Y-30970114D03*
X222295745Y-38590114D03*
X224835745Y-38590114D03*
X227375745Y-38590114D03*
X229915745Y-38590114D03*
X232455745Y-38590114D03*
X234995745Y-38590114D03*
X237535745Y-38590114D03*
X240075745Y-38590114D03*
X242615745Y-38590114D03*
X245155745Y-38590114D03*
%TD*%
D11*
%TO.C,J9*%
X110744000Y-53848000D03*
D12*
X113284000Y-53848000D03*
X115824000Y-53848000D03*
X118364000Y-53848000D03*
X120904000Y-53848000D03*
X123444000Y-53848000D03*
X125984000Y-53848000D03*
X128524000Y-53848000D03*
X131064000Y-53848000D03*
X133604000Y-53848000D03*
X136144000Y-53848000D03*
X138684000Y-53848000D03*
X141224000Y-53848000D03*
X143764000Y-53848000D03*
X146304000Y-53848000D03*
%TD*%
D10*
%TO.C,C6*%
X216702745Y-38526514D03*
X219202745Y-38526514D03*
%TD*%
D13*
%TO.C,U5*%
X245155745Y-54667314D03*
D10*
X242615745Y-54667314D03*
X240075745Y-54667314D03*
X237535745Y-54667314D03*
X234995745Y-54667314D03*
X232455745Y-54667314D03*
X229915745Y-54667314D03*
X227375745Y-54667314D03*
X224835745Y-54667314D03*
X222295745Y-54667314D03*
X222295745Y-62287314D03*
X224835745Y-62287314D03*
X227375745Y-62287314D03*
X229915745Y-62287314D03*
X232455745Y-62287314D03*
X234995745Y-62287314D03*
X237535745Y-62287314D03*
X240075745Y-62287314D03*
X242615745Y-62287314D03*
X245155745Y-62287314D03*
%TD*%
%TO.C,U6*%
X270423745Y-62287314D03*
X267883745Y-62287314D03*
X265343745Y-62287314D03*
X262803745Y-62287314D03*
X260263745Y-62287314D03*
X257723745Y-62287314D03*
X255183745Y-62287314D03*
X255183745Y-54667314D03*
X257723745Y-54667314D03*
X260263745Y-54667314D03*
X262803745Y-54667314D03*
X265343745Y-54667314D03*
X267883745Y-54667314D03*
D13*
X270423745Y-54667314D03*
%TD*%
%TO.C,U1*%
X212262745Y-42781114D03*
D10*
X209722745Y-42781114D03*
X207182745Y-42781114D03*
X204642745Y-42781114D03*
X202102745Y-42781114D03*
X199562745Y-42781114D03*
X197022745Y-42781114D03*
X197022745Y-50401114D03*
X199562745Y-50401114D03*
X202102745Y-50401114D03*
X204642745Y-50401114D03*
X207182745Y-50401114D03*
X209722745Y-50401114D03*
X212262745Y-50401114D03*
%TD*%
%TO.C,C8*%
X276098745Y-62307314D03*
X273598745Y-62307314D03*
%TD*%
M02*
