%TF.GenerationSoftware,KiCad,Pcbnew,10.0.1*%
%TF.CreationDate,2026-06-23T07:49:44+01:00*%
%TF.ProjectId,BeanBoardSPI,4265616e-426f-4617-9264-5350492e6b69,rev?*%
%TF.SameCoordinates,Original*%
%TF.FileFunction,Copper,L1,Top*%
%TF.FilePolarity,Positive*%
%FSLAX46Y46*%
G04 Gerber Fmt 4.6, Leading zero omitted, Abs format (unit mm)*
G04 Created by KiCad (PCBNEW 10.0.1) date 2026-06-23 07:49:44*
%MOMM*%
%LPD*%
G01*
G04 APERTURE LIST*
G04 Aperture macros list*
%AMRoundRect*
0 Rectangle with rounded corners*
0 $1 Rounding radius*
0 $2 $3 $4 $5 $6 $7 $8 $9 X,Y pos of 4 corners*
0 Add a 4 corners polygon primitive as box body*
4,1,4,$2,$3,$4,$5,$6,$7,$8,$9,$2,$3,0*
0 Add four circle primitives for the rounded corners*
1,1,$1+$1,$2,$3*
1,1,$1+$1,$4,$5*
1,1,$1+$1,$6,$7*
1,1,$1+$1,$8,$9*
0 Add four rect primitives between the rounded corners*
20,1,$1+$1,$2,$3,$4,$5,0*
20,1,$1+$1,$4,$5,$6,$7,0*
20,1,$1+$1,$6,$7,$8,$9,0*
20,1,$1+$1,$8,$9,$2,$3,0*%
G04 Aperture macros list end*
%TA.AperFunction,ComponentPad*%
%ADD10C,1.600000*%
%TD*%
%TA.AperFunction,ComponentPad*%
%ADD11R,1.700000X1.700000*%
%TD*%
%TA.AperFunction,ComponentPad*%
%ADD12O,1.700000X1.700000*%
%TD*%
%TA.AperFunction,ComponentPad*%
%ADD13RoundRect,0.250000X-0.550000X0.550000X-0.550000X-0.550000X0.550000X-0.550000X0.550000X0.550000X0*%
%TD*%
%TA.AperFunction,ViaPad*%
%ADD14C,0.800000*%
%TD*%
%TA.AperFunction,Conductor*%
%ADD15C,0.250000*%
%TD*%
G04 APERTURE END LIST*
D10*
%TO.P,C2,2*%
%TO.N,/GND*%
X277368745Y-50421114D03*
%TO.P,C2,1*%
%TO.N,/+5V*%
X274868745Y-50421114D03*
%TD*%
D11*
%TO.P,J5,1,Pin_1_1*%
%TO.N,Net-(J4-Pin_1)*%
X293370745Y-55800335D03*
D12*
%TO.P,J5,2,Pin_2_2*%
%TO.N,Net-(J4-Pin_2)*%
X293370745Y-58340335D03*
%TO.P,J5,3,Pin_3_3*%
%TO.N,Net-(J4-Pin_3)*%
X293370745Y-60880335D03*
%TO.P,J5,4,Pin_4_4*%
%TO.N,Net-(J4-Pin_4)*%
X293370745Y-63420335D03*
%TO.P,J5,5,Pin_5_5*%
%TO.N,Net-(J4-Pin_5)*%
X293370745Y-65960335D03*
%TO.P,J5,6,Pin_6_6*%
%TO.N,Net-(J4-Pin_6)*%
X293370745Y-68500335D03*
%TO.P,J5,7,Pin_7_7*%
%TO.N,Net-(J4-Pin_7)*%
X293370745Y-71040335D03*
%TO.P,J5,8,Pin_8_8*%
%TO.N,Net-(J4-Pin_8)*%
X293370745Y-73580335D03*
%TO.P,J5,9,Pin_9_9*%
%TO.N,Net-(J4-Pin_9)*%
X293370745Y-76120335D03*
%TO.P,J5,10,Pin_10_10*%
%TO.N,Net-(J4-Pin_10)*%
X293370745Y-78660335D03*
%TD*%
D11*
%TO.P,JP2,1,A_1*%
%TO.N,Net-(JP2-A)*%
X290322745Y-39554314D03*
D12*
%TO.P,JP2,2,B_2*%
%TO.N,/INT_CLK*%
X292862745Y-39554314D03*
%TD*%
D11*
%TO.P,J11,1,Pin_1_1*%
%TO.N,/+5V*%
X142968504Y-82734314D03*
D12*
%TO.P,J11,2,Pin_2_2*%
%TO.N,unconnected-(J11-Pin_2-Pad2)*%
X145508504Y-82734314D03*
%TO.P,J11,3,Pin_3_3*%
%TO.N,/GND*%
X148048504Y-82734314D03*
%TO.P,J11,4,Pin_4_4*%
%TO.N,/SER_CLK*%
X150588504Y-82734314D03*
%TO.P,J11,5,Pin_5_5*%
%TO.N,/SER_IN*%
X153128504Y-82734314D03*
%TO.P,J11,6,Pin_6_6*%
%TO.N,/SER_OUT*%
X155668504Y-82734314D03*
%TO.P,J11,7,Pin_7_7*%
%TO.N,/~{CS_2}*%
X158208504Y-82734314D03*
%TD*%
D10*
%TO.P,U10,16,VCC_16*%
%TO.N,/+5V*%
X271698745Y-50401114D03*
%TO.P,U10,15,~{CE}_15*%
%TO.N,/DATA_WR*%
X269158745Y-50401114D03*
%TO.P,U10,14,D3_14*%
%TO.N,/GND*%
X266618745Y-50401114D03*
%TO.P,U10,13,D2_13*%
X264078745Y-50401114D03*
%TO.P,U10,12,D1_12*%
X261538745Y-50401114D03*
%TO.P,U10,11,D0_11*%
X258998745Y-50401114D03*
%TO.P,U10,10,DS_10*%
X256458745Y-50401114D03*
%TO.P,U10,9,Q7_9*%
%TO.N,Net-(U10-Q7)*%
X253918745Y-50401114D03*
%TO.P,U10,8,GND_8*%
%TO.N,/GND*%
X253918745Y-42781114D03*
%TO.P,U10,7,~{Q7}_7*%
%TO.N,unconnected-(U10-~{Q7}-Pad7)*%
X256458745Y-42781114D03*
%TO.P,U10,6,D7_6*%
%TO.N,/D0*%
X258998745Y-42781114D03*
%TO.P,U10,5,D6_5*%
%TO.N,/GND*%
X261538745Y-42781114D03*
%TO.P,U10,4,D5_4*%
X264078745Y-42781114D03*
%TO.P,U10,3,D4_3*%
X266618745Y-42781114D03*
%TO.P,U10,2,CP_2*%
%TO.N,/INT_CLK*%
X269158745Y-42781114D03*
D13*
%TO.P,U10,1,~{PL}_1*%
%TO.N,/~{DATA_WR}*%
X271698745Y-42781114D03*
%TD*%
D11*
%TO.P,J8,1,Pin_1_1*%
%TO.N,/GND*%
X288798745Y-23552314D03*
D12*
%TO.P,J8,2,Pin_2_2*%
%TO.N,/+5V*%
X291338745Y-23552314D03*
%TO.P,J8,3,Pin_3_3*%
%TO.N,/GND*%
X293878745Y-23552314D03*
%TD*%
D13*
%TO.P,U7,1,1OE_1*%
%TO.N,/~{DATA_RD}*%
X245155745Y-42781114D03*
D10*
%TO.P,U7,2,1A0_2*%
%TO.N,Net-(U6-Q0)*%
X242615745Y-42781114D03*
%TO.P,U7,3,2Y0_3*%
%TO.N,/D4*%
X240075745Y-42781114D03*
%TO.P,U7,4,1A1_4*%
%TO.N,Net-(U6-Q1)*%
X237535745Y-42781114D03*
%TO.P,U7,5,2Y1_5*%
%TO.N,/D5*%
X234995745Y-42781114D03*
%TO.P,U7,6,1A2_6*%
%TO.N,Net-(U6-Q2)*%
X232455745Y-42781114D03*
%TO.P,U7,7,2Y2_7*%
%TO.N,/D6*%
X229915745Y-42781114D03*
%TO.P,U7,8,1A3_8*%
%TO.N,Net-(U6-Q3)*%
X227375745Y-42781114D03*
%TO.P,U7,9,2Y3_9*%
%TO.N,/D7*%
X224835745Y-42781114D03*
%TO.P,U7,10,GND_10*%
%TO.N,/GND*%
X222295745Y-42781114D03*
%TO.P,U7,11,2A3_11*%
%TO.N,Net-(U6-Q7)*%
X222295745Y-50401114D03*
%TO.P,U7,12,1Y3_12*%
%TO.N,/D3*%
X224835745Y-50401114D03*
%TO.P,U7,13,2A2_13*%
%TO.N,Net-(U6-Q6)*%
X227375745Y-50401114D03*
%TO.P,U7,14,1Y2_14*%
%TO.N,/D2*%
X229915745Y-50401114D03*
%TO.P,U7,15,2A1_15*%
%TO.N,Net-(U6-Q5)*%
X232455745Y-50401114D03*
%TO.P,U7,16,1Y1_16*%
%TO.N,/D1*%
X234995745Y-50401114D03*
%TO.P,U7,17,2A0_17*%
%TO.N,Net-(U6-Q4)*%
X237535745Y-50401114D03*
%TO.P,U7,18,1Y0_18*%
%TO.N,/D0*%
X240075745Y-50401114D03*
%TO.P,U7,19,2OE_19*%
%TO.N,/~{DATA_RD}*%
X242615745Y-50401114D03*
%TO.P,U7,20,VCC_20*%
%TO.N,/+5V*%
X245155745Y-50401114D03*
%TD*%
D11*
%TO.P,J14,1,Pin_1_1*%
%TO.N,/+5V*%
X230239434Y-82734314D03*
D12*
%TO.P,J14,2,Pin_2_2*%
%TO.N,unconnected-(J14-Pin_2-Pad2)*%
X232779434Y-82734314D03*
%TO.P,J14,3,Pin_3_3*%
%TO.N,/GND*%
X235319434Y-82734314D03*
%TO.P,J14,4,Pin_4_4*%
%TO.N,/SER_CLK*%
X237859434Y-82734314D03*
%TO.P,J14,5,Pin_5_5*%
%TO.N,/SER_IN*%
X240399434Y-82734314D03*
%TO.P,J14,6,Pin_6_6*%
%TO.N,/SER_OUT*%
X242939434Y-82734314D03*
%TO.P,J14,7,Pin_7_7*%
%TO.N,/~{CS_5}*%
X245479434Y-82734314D03*
%TD*%
D10*
%TO.P,C5,1*%
%TO.N,/+5V*%
X216615745Y-26219314D03*
%TO.P,C5,2*%
%TO.N,/GND*%
X219115745Y-26219314D03*
%TD*%
%TO.P,C11,2*%
%TO.N,/GND*%
X215345745Y-50349314D03*
%TO.P,C11,1*%
%TO.N,/+5V*%
X217845745Y-50349314D03*
%TD*%
%TO.P,C3,1*%
%TO.N,/+5V*%
X245785745Y-26164114D03*
%TO.P,C3,2*%
%TO.N,/GND*%
X248285745Y-26164114D03*
%TD*%
D11*
%TO.P,J12,1,Pin_1_1*%
%TO.N,/+5V*%
X172058814Y-82734314D03*
D12*
%TO.P,J12,2,Pin_2_2*%
%TO.N,unconnected-(J12-Pin_2-Pad2)*%
X174598814Y-82734314D03*
%TO.P,J12,3,Pin_3_3*%
%TO.N,/GND*%
X177138814Y-82734314D03*
%TO.P,J12,4,Pin_4_4*%
%TO.N,/SER_CLK*%
X179678814Y-82734314D03*
%TO.P,J12,5,Pin_5_5*%
%TO.N,/SER_IN*%
X182218814Y-82734314D03*
%TO.P,J12,6,Pin_6_6*%
%TO.N,/SER_OUT*%
X184758814Y-82734314D03*
%TO.P,J12,7,Pin_7_7*%
%TO.N,/~{CS_3}*%
X187298814Y-82734314D03*
%TD*%
D11*
%TO.P,J4,1,Pin_1_1*%
%TO.N,Net-(J4-Pin_1)*%
X289806558Y-55800335D03*
D12*
%TO.P,J4,2,Pin_2_2*%
%TO.N,Net-(J4-Pin_2)*%
X289806558Y-58340335D03*
%TO.P,J4,3,Pin_3_3*%
%TO.N,Net-(J4-Pin_3)*%
X289806558Y-60880335D03*
%TO.P,J4,4,Pin_4_4*%
%TO.N,Net-(J4-Pin_4)*%
X289806558Y-63420335D03*
%TO.P,J4,5,Pin_5_5*%
%TO.N,Net-(J4-Pin_5)*%
X289806558Y-65960335D03*
%TO.P,J4,6,Pin_6_6*%
%TO.N,Net-(J4-Pin_6)*%
X289806558Y-68500335D03*
%TO.P,J4,7,Pin_7_7*%
%TO.N,Net-(J4-Pin_7)*%
X289806558Y-71040335D03*
%TO.P,J4,8,Pin_8_8*%
%TO.N,Net-(J4-Pin_8)*%
X289806558Y-73580335D03*
%TO.P,J4,9,Pin_9_9*%
%TO.N,Net-(J4-Pin_9)*%
X289806558Y-76120335D03*
%TO.P,J4,10,Pin_10_10*%
%TO.N,Net-(J4-Pin_10)*%
X289806558Y-78660335D03*
%TD*%
D11*
%TO.P,J15,1,Pin_1_1*%
%TO.N,/+5V*%
X259329745Y-82734314D03*
D12*
%TO.P,J15,2,Pin_2_2*%
%TO.N,unconnected-(J15-Pin_2-Pad2)*%
X261869745Y-82734314D03*
%TO.P,J15,3,Pin_3_3*%
%TO.N,/GND*%
X264409745Y-82734314D03*
%TO.P,J15,4,Pin_4_4*%
%TO.N,/SER_CLK*%
X266949745Y-82734314D03*
%TO.P,J15,5,Pin_5_5*%
%TO.N,/SER_IN*%
X269489745Y-82734314D03*
%TO.P,J15,6,Pin_6_6*%
%TO.N,/SER_OUT*%
X272029745Y-82734314D03*
%TO.P,J15,7,Pin_7_7*%
%TO.N,/~{CS_6}*%
X274569745Y-82734314D03*
%TD*%
D11*
%TO.P,J7,1,Pin_1_1*%
%TO.N,Net-(J6-Pin_1)*%
X283718745Y-55800335D03*
D12*
%TO.P,J7,2,Pin_2_2*%
%TO.N,Net-(J6-Pin_2)*%
X283718745Y-58340335D03*
%TO.P,J7,3,Pin_3_3*%
%TO.N,Net-(J6-Pin_3)*%
X283718745Y-60880335D03*
%TO.P,J7,4,Pin_4_4*%
%TO.N,Net-(J6-Pin_4)*%
X283718745Y-63420335D03*
%TO.P,J7,5,Pin_5_5*%
%TO.N,Net-(J6-Pin_5)*%
X283718745Y-65960335D03*
%TO.P,J7,6,Pin_6_6*%
%TO.N,Net-(J6-Pin_6)*%
X283718745Y-68500335D03*
%TO.P,J7,7,Pin_7_7*%
%TO.N,Net-(J6-Pin_7)*%
X283718745Y-71040335D03*
%TO.P,J7,8,Pin_8_8*%
%TO.N,Net-(J6-Pin_8)*%
X283718745Y-73580335D03*
%TO.P,J7,9,Pin_9_9*%
%TO.N,Net-(J6-Pin_9)*%
X283718745Y-76120335D03*
%TO.P,J7,10,Pin_10_10*%
%TO.N,Net-(J6-Pin_10)*%
X283718745Y-78660335D03*
%TD*%
D10*
%TO.P,U12,16,VCC_16*%
%TO.N,/+5V*%
X271698745Y-26271114D03*
%TO.P,U12,15,~{CE}_15*%
%TO.N,/DATA_WR*%
X269158745Y-26271114D03*
%TO.P,U12,14,D3_14*%
%TO.N,/GND*%
X266618745Y-26271114D03*
%TO.P,U12,13,D2_13*%
X264078745Y-26271114D03*
%TO.P,U12,12,D1_12*%
X261538745Y-26271114D03*
%TO.P,U12,11,D0_11*%
X258998745Y-26271114D03*
%TO.P,U12,10,DS_10*%
X256458745Y-26271114D03*
%TO.P,U12,9,Q7_9*%
%TO.N,Net-(U11-DS)*%
X253918745Y-26271114D03*
%TO.P,U12,8,GND_8*%
%TO.N,/GND*%
X253918745Y-18651114D03*
%TO.P,U12,7,~{Q7}_7*%
%TO.N,unconnected-(U12-~{Q7}-Pad7)*%
X256458745Y-18651114D03*
%TO.P,U12,6,D7_6*%
%TO.N,/+5V*%
X258998745Y-18651114D03*
%TO.P,U12,5,D6_5*%
%TO.N,/GND*%
X261538745Y-18651114D03*
%TO.P,U12,4,D5_4*%
X264078745Y-18651114D03*
%TO.P,U12,3,D4_3*%
X266618745Y-18651114D03*
%TO.P,U12,2,CP_2*%
%TO.N,/INT_CLK*%
X269158745Y-18651114D03*
D13*
%TO.P,U12,1,~{PL}_1*%
%TO.N,/~{DATA_WR}*%
X271698745Y-18651114D03*
%TD*%
D10*
%TO.P,U4,14,VCC_14*%
%TO.N,/+5V*%
X270423745Y-38590114D03*
%TO.P,U4,13,~{R}_13*%
X267883745Y-38590114D03*
%TO.P,U4,12,D_12*%
%TO.N,Net-(U4B-D)*%
X265343745Y-38590114D03*
%TO.P,U4,11,C_11*%
%TO.N,Net-(JP2-A)*%
X262803745Y-38590114D03*
%TO.P,U4,10,~{S}_10*%
%TO.N,/+5V*%
X260263745Y-38590114D03*
%TO.P,U4,9,Q_9*%
%TO.N,Net-(JP3-A)*%
X257723745Y-38590114D03*
%TO.P,U4,8,~{Q}_8*%
%TO.N,Net-(U4B-D)*%
X255183745Y-38590114D03*
%TO.P,U4,7,GND_7*%
%TO.N,/GND*%
X255183745Y-30970114D03*
%TO.P,U4,6,~{Q}_6*%
%TO.N,Net-(U4A-D)*%
X257723745Y-30970114D03*
%TO.P,U4,5,Q_5*%
%TO.N,Net-(JP2-A)*%
X260263745Y-30970114D03*
%TO.P,U4,4,~{S}_4*%
%TO.N,/+5V*%
X262803745Y-30970114D03*
%TO.P,U4,3,C_3*%
%TO.N,/CLK*%
X265343745Y-30970114D03*
%TO.P,U4,2,D_2*%
%TO.N,Net-(U4A-D)*%
X267883745Y-30970114D03*
D13*
%TO.P,U4,1,~{R}_1*%
%TO.N,/+5V*%
X270423745Y-30970114D03*
%TD*%
%TO.P,U11,1,~{PL}_1*%
%TO.N,/~{DATA_WR}*%
X213537745Y-18651114D03*
D10*
%TO.P,U11,2,CP_2*%
%TO.N,/INT_CLK*%
X210997745Y-18651114D03*
%TO.P,U11,3,D4_3*%
%TO.N,/+5V*%
X208457745Y-18651114D03*
%TO.P,U11,4,D5_4*%
X205917745Y-18651114D03*
%TO.P,U11,5,D6_5*%
X203377745Y-18651114D03*
%TO.P,U11,6,D7_6*%
%TO.N,/GND*%
X200837745Y-18651114D03*
%TO.P,U11,7,~{Q7}_7*%
%TO.N,/~{SER_EN}*%
X198297745Y-18651114D03*
%TO.P,U11,8,GND_8*%
%TO.N,/GND*%
X195757745Y-18651114D03*
%TO.P,U11,9,Q7_9*%
%TO.N,/SER_EN*%
X195757745Y-26271114D03*
%TO.P,U11,10,DS_10*%
%TO.N,Net-(U11-DS)*%
X198297745Y-26271114D03*
%TO.P,U11,11,D0_11*%
%TO.N,/+5V*%
X200837745Y-26271114D03*
%TO.P,U11,12,D1_12*%
X203377745Y-26271114D03*
%TO.P,U11,13,D2_13*%
X205917745Y-26271114D03*
%TO.P,U11,14,D3_14*%
X208457745Y-26271114D03*
%TO.P,U11,15,~{CE}_15*%
%TO.N,/DATA_WR*%
X210997745Y-26271114D03*
%TO.P,U11,16,VCC_16*%
%TO.N,/+5V*%
X213537745Y-26271114D03*
%TD*%
D11*
%TO.P,J2,1,Pin_1_1*%
%TO.N,/~{RD}*%
X154033298Y-19989406D03*
D12*
%TO.P,J2,2,Pin_2_2*%
%TO.N,/~{WR}*%
X156573298Y-19989406D03*
%TO.P,J2,3,Pin_3_3*%
%TO.N,unconnected-(J2-Pin_3-Pad3)*%
X159113298Y-19989406D03*
%TO.P,J2,4,Pin_4_4*%
%TO.N,/~{IORQ}*%
X161653298Y-19989406D03*
%TO.P,J2,5,Pin_5_5*%
%TO.N,unconnected-(J2-Pin_5-Pad5)*%
X164193298Y-19989406D03*
%TO.P,J2,6,Pin_6_6*%
%TO.N,/CLK*%
X166733298Y-19989406D03*
%TO.P,J2,7,Pin_7_7*%
%TO.N,unconnected-(J2-Pin_7-Pad7)*%
X169273298Y-19989406D03*
%TO.P,J2,8,Pin_8_8*%
%TO.N,unconnected-(J2-Pin_8-Pad8)*%
X171813298Y-19989406D03*
%TO.P,J2,9,Pin_9_9*%
%TO.N,/D0*%
X174353298Y-19989406D03*
%TO.P,J2,10,Pin_10_10*%
%TO.N,/D1*%
X176893298Y-19989406D03*
%TO.P,J2,11,Pin_11_11*%
%TO.N,/D2*%
X179433298Y-19989406D03*
%TO.P,J2,12,Pin_12_12*%
%TO.N,/D3*%
X181973298Y-19989406D03*
%TO.P,J2,13,Pin_13_13*%
%TO.N,/D4*%
X184513298Y-19989406D03*
%TO.P,J2,14,Pin_14_14*%
%TO.N,/D5*%
X187053298Y-19989406D03*
%TO.P,J2,15,Pin_15_15*%
%TO.N,/D6*%
X189593298Y-19989406D03*
%TO.P,J2,16,Pin_16_16*%
%TO.N,/D7*%
X192133298Y-19989406D03*
%TD*%
D10*
%TO.P,C10,2*%
%TO.N,/GND*%
X250825745Y-50294114D03*
%TO.P,C10,1*%
%TO.N,/+5V*%
X248325745Y-50294114D03*
%TD*%
D11*
%TO.P,J6,1,Pin_1_1*%
%TO.N,Net-(J6-Pin_1)*%
X287265073Y-55800335D03*
D12*
%TO.P,J6,2,Pin_2_2*%
%TO.N,Net-(J6-Pin_2)*%
X287265073Y-58340335D03*
%TO.P,J6,3,Pin_3_3*%
%TO.N,Net-(J6-Pin_3)*%
X287265073Y-60880335D03*
%TO.P,J6,4,Pin_4_4*%
%TO.N,Net-(J6-Pin_4)*%
X287265073Y-63420335D03*
%TO.P,J6,5,Pin_5_5*%
%TO.N,Net-(J6-Pin_5)*%
X287265073Y-65960335D03*
%TO.P,J6,6,Pin_6_6*%
%TO.N,Net-(J6-Pin_6)*%
X287265073Y-68500335D03*
%TO.P,J6,7,Pin_7_7*%
%TO.N,Net-(J6-Pin_7)*%
X287265073Y-71040335D03*
%TO.P,J6,8,Pin_8_8*%
%TO.N,Net-(J6-Pin_8)*%
X287265073Y-73580335D03*
%TO.P,J6,9,Pin_9_9*%
%TO.N,Net-(J6-Pin_9)*%
X287265073Y-76120335D03*
%TO.P,J6,10,Pin_10_10*%
%TO.N,Net-(J6-Pin_10)*%
X287265073Y-78660335D03*
%TD*%
D13*
%TO.P,U9,1,~{PL}_1*%
%TO.N,/~{DATA_WR}*%
X242615745Y-18651114D03*
D10*
%TO.P,U9,2,CP_2*%
%TO.N,/INT_CLK*%
X240075745Y-18651114D03*
%TO.P,U9,3,D4_3*%
%TO.N,/D5*%
X237535745Y-18651114D03*
%TO.P,U9,4,D5_4*%
%TO.N,/D6*%
X234995745Y-18651114D03*
%TO.P,U9,5,D6_5*%
%TO.N,/D7*%
X232455745Y-18651114D03*
%TO.P,U9,6,D7_6*%
%TO.N,/GND*%
X229915745Y-18651114D03*
%TO.P,U9,7,~{Q7}_7*%
%TO.N,unconnected-(U9-~{Q7}-Pad7)*%
X227375745Y-18651114D03*
%TO.P,U9,8,GND_8*%
%TO.N,/GND*%
X224835745Y-18651114D03*
%TO.P,U9,9,Q7_9*%
%TO.N,/SER_OUT*%
X224835745Y-26271114D03*
%TO.P,U9,10,DS_10*%
%TO.N,Net-(U10-Q7)*%
X227375745Y-26271114D03*
%TO.P,U9,11,D0_11*%
%TO.N,/D1*%
X229915745Y-26271114D03*
%TO.P,U9,12,D1_12*%
%TO.N,/D2*%
X232455745Y-26271114D03*
%TO.P,U9,13,D2_13*%
%TO.N,/D3*%
X234995745Y-26271114D03*
%TO.P,U9,14,D3_14*%
%TO.N,/D4*%
X237535745Y-26271114D03*
%TO.P,U9,15,~{CE}_15*%
%TO.N,/DATA_WR*%
X240075745Y-26271114D03*
%TO.P,U9,16,VCC_16*%
%TO.N,/+5V*%
X242615745Y-26271114D03*
%TD*%
D11*
%TO.P,J13,1,Pin_1_1*%
%TO.N,/+5V*%
X201149124Y-82734314D03*
D12*
%TO.P,J13,2,Pin_2_2*%
%TO.N,unconnected-(J13-Pin_2-Pad2)*%
X203689124Y-82734314D03*
%TO.P,J13,3,Pin_3_3*%
%TO.N,/GND*%
X206229124Y-82734314D03*
%TO.P,J13,4,Pin_4_4*%
%TO.N,/SER_CLK*%
X208769124Y-82734314D03*
%TO.P,J13,5,Pin_5_5*%
%TO.N,/SER_IN*%
X211309124Y-82734314D03*
%TO.P,J13,6,Pin_6_6*%
%TO.N,/SER_OUT*%
X213849124Y-82734314D03*
%TO.P,J13,7,Pin_7_7*%
%TO.N,/~{CS_4}*%
X216389124Y-82734314D03*
%TD*%
D11*
%TO.P,JP1,1,A_1*%
%TO.N,/CLK*%
X290327745Y-43364314D03*
D12*
%TO.P,JP1,2,B_2*%
%TO.N,/INT_CLK*%
X292867745Y-43364314D03*
%TD*%
D10*
%TO.P,C7,2*%
%TO.N,/GND*%
X276098745Y-38610114D03*
%TO.P,C7,1*%
%TO.N,/+5V*%
X273598745Y-38610114D03*
%TD*%
D13*
%TO.P,U3,1,A0_1*%
%TO.N,/A1*%
X213537745Y-30970114D03*
D10*
%TO.P,U3,2,A1_2*%
%TO.N,/A2*%
X210997745Y-30970114D03*
%TO.P,U3,3,A2_3*%
%TO.N,/A3*%
X208457745Y-30970114D03*
%TO.P,U3,4,~{E0}_4*%
%TO.N,/~{IORQ}*%
X205917745Y-30970114D03*
%TO.P,U3,5,~{E1}_5*%
X203377745Y-30970114D03*
%TO.P,U3,6,E2_6*%
%TO.N,/+5V*%
X200837745Y-30970114D03*
%TO.P,U3,7,~{Y7}_7*%
%TO.N,unconnected-(U3-~{Y7}-Pad7)*%
X198297745Y-30970114D03*
%TO.P,U3,8,GND_8*%
%TO.N,/GND*%
X195757745Y-30970114D03*
%TO.P,U3,9,~{Y6}_9*%
%TO.N,unconnected-(U3-~{Y6}-Pad9)*%
X195757745Y-38590114D03*
%TO.P,U3,10,~{Y5}_10*%
%TO.N,Net-(U3-~{Y5})*%
X198297745Y-38590114D03*
%TO.P,U3,11,~{Y4}_11*%
%TO.N,Net-(U3-~{Y4})*%
X200837745Y-38590114D03*
%TO.P,U3,12,~{Y3}_12*%
%TO.N,unconnected-(U3-~{Y3}-Pad12)*%
X203377745Y-38590114D03*
%TO.P,U3,13,~{Y2}_13*%
%TO.N,unconnected-(U3-~{Y2}-Pad13)*%
X205917745Y-38590114D03*
%TO.P,U3,14,~{Y1}_14*%
%TO.N,unconnected-(U3-~{Y1}-Pad14)*%
X208457745Y-38590114D03*
%TO.P,U3,15,~{Y0}_15*%
%TO.N,unconnected-(U3-~{Y0}-Pad15)*%
X210997745Y-38590114D03*
%TO.P,U3,16,VCC_16*%
%TO.N,/+5V*%
X213537745Y-38590114D03*
%TD*%
%TO.P,C12,1*%
%TO.N,/+5V*%
X217845745Y-62267314D03*
%TO.P,C12,2*%
%TO.N,/GND*%
X215345745Y-62267314D03*
%TD*%
D13*
%TO.P,U2,1*%
%TO.N,Net-(U2-Pad1)*%
X212262745Y-54667314D03*
D10*
%TO.P,U2,2*%
%TO.N,/~{RD}*%
X209722745Y-54667314D03*
%TO.P,U2,3*%
%TO.N,Net-(U3-~{Y5})*%
X207182745Y-54667314D03*
%TO.P,U2,4*%
%TO.N,/~{DATA_RD}*%
X204642745Y-54667314D03*
%TO.P,U2,5*%
%TO.N,Net-(U2-Pad1)*%
X202102745Y-54667314D03*
%TO.P,U2,6*%
X199562745Y-54667314D03*
%TO.P,U2,7,GND_7*%
%TO.N,/GND*%
X197022745Y-54667314D03*
%TO.P,U2,8*%
%TO.N,Net-(U3-~{Y5})*%
X197022745Y-62287314D03*
%TO.P,U2,9*%
%TO.N,/~{WR}*%
X199562745Y-62287314D03*
%TO.P,U2,10*%
%TO.N,/DATA_WR*%
X202102745Y-62287314D03*
%TO.P,U2,11*%
X204642745Y-62287314D03*
%TO.P,U2,12*%
X207182745Y-62287314D03*
%TO.P,U2,13*%
%TO.N,/~{DATA_WR}*%
X209722745Y-62287314D03*
%TO.P,U2,14,VCC_14*%
%TO.N,/+5V*%
X212262745Y-62287314D03*
%TD*%
D11*
%TO.P,JP3,1,A_1*%
%TO.N,Net-(JP3-A)*%
X290322745Y-35739314D03*
D12*
%TO.P,JP3,2,B_2*%
%TO.N,/INT_CLK*%
X292862745Y-35739314D03*
%TD*%
D10*
%TO.P,C1,2*%
%TO.N,/GND*%
X277368745Y-26291114D03*
%TO.P,C1,1*%
%TO.N,/+5V*%
X274868745Y-26291114D03*
%TD*%
%TO.P,C4,2*%
%TO.N,/GND*%
X250825745Y-62180314D03*
%TO.P,C4,1*%
%TO.N,/+5V*%
X248325745Y-62180314D03*
%TD*%
D11*
%TO.P,J1,1,Pin_1_1*%
%TO.N,unconnected-(J1-Pin_1-Pad1)*%
X144018000Y-20066000D03*
D12*
%TO.P,J1,2,Pin_2_2*%
%TO.N,/A1*%
X141478000Y-20066000D03*
%TO.P,J1,3,Pin_3_3*%
%TO.N,/A2*%
X138938000Y-20066000D03*
%TO.P,J1,4,Pin_4_4*%
%TO.N,/A3*%
X136398000Y-20066000D03*
%TO.P,J1,5,Pin_5_5*%
%TO.N,unconnected-(J1-Pin_5-Pad5)*%
X133858000Y-20066000D03*
%TO.P,J1,6,Pin_6_6*%
%TO.N,unconnected-(J1-Pin_6-Pad6)*%
X131318000Y-20066000D03*
%TO.P,J1,7,Pin_7_7*%
%TO.N,unconnected-(J1-Pin_7-Pad7)*%
X128778000Y-20066000D03*
%TO.P,J1,8,Pin_8_8*%
%TO.N,unconnected-(J1-Pin_8-Pad8)*%
X126238000Y-20066000D03*
%TO.P,J1,9,Pin_9_9*%
%TO.N,unconnected-(J1-Pin_9-Pad9)*%
X123698000Y-20066000D03*
%TO.P,J1,10,Pin_10_10*%
%TO.N,unconnected-(J1-Pin_10-Pad10)*%
X121158000Y-20066000D03*
%TO.P,J1,11,Pin_11_11*%
%TO.N,unconnected-(J1-Pin_11-Pad11)*%
X118618000Y-20066000D03*
%TO.P,J1,12,Pin_12_12*%
%TO.N,unconnected-(J1-Pin_12-Pad12)*%
X116078000Y-20066000D03*
%TO.P,J1,13,Pin_13_13*%
%TO.N,unconnected-(J1-Pin_13-Pad13)*%
X113538000Y-20066000D03*
%TO.P,J1,14,Pin_14_14*%
%TO.N,unconnected-(J1-Pin_14-Pad14)*%
X110998000Y-20066000D03*
%TO.P,J1,15,Pin_15_15*%
%TO.N,unconnected-(J1-Pin_15-Pad15)*%
X108458000Y-20066000D03*
%TO.P,J1,16,Pin_16_16*%
%TO.N,unconnected-(J1-Pin_16-Pad16)*%
X105918000Y-20066000D03*
%TD*%
D10*
%TO.P,C9,2*%
%TO.N,/GND*%
X250825745Y-38483114D03*
%TO.P,C9,1*%
%TO.N,/+5V*%
X248325745Y-38483114D03*
%TD*%
D11*
%TO.P,J3,1,Pin_1_1*%
%TO.N,/GND*%
X288805334Y-19986097D03*
D12*
%TO.P,J3,2,Pin_2_2*%
%TO.N,/+5V*%
X291345334Y-19986097D03*
%TO.P,J3,3,Pin_3_3*%
%TO.N,/GND*%
X293885334Y-19986097D03*
%TD*%
D11*
%TO.P,J10,1,Pin_1_1*%
%TO.N,/+5V*%
X113878194Y-82734314D03*
D12*
%TO.P,J10,2,Pin_2_2*%
%TO.N,unconnected-(J10-Pin_2-Pad2)*%
X116418194Y-82734314D03*
%TO.P,J10,3,Pin_3_3*%
%TO.N,/GND*%
X118958194Y-82734314D03*
%TO.P,J10,4,Pin_4_4*%
%TO.N,/SER_CLK*%
X121498194Y-82734314D03*
%TO.P,J10,5,Pin_5_5*%
%TO.N,/SER_IN*%
X124038194Y-82734314D03*
%TO.P,J10,6,Pin_6_6*%
%TO.N,/SER_OUT*%
X126578194Y-82734314D03*
%TO.P,J10,7,Pin_7_7*%
%TO.N,/~{CS_1}*%
X129118194Y-82734314D03*
%TD*%
D13*
%TO.P,U8,1,1OE_1*%
%TO.N,/~{STATUS_RD}*%
X245155745Y-30970114D03*
D10*
%TO.P,U8,2,1A0_2*%
%TO.N,/~{SER_EN}*%
X242615745Y-30970114D03*
%TO.P,U8,3,2Y0_3*%
%TO.N,/D4*%
X240075745Y-30970114D03*
%TO.P,U8,4,1A1_4*%
%TO.N,/GND*%
X237535745Y-30970114D03*
%TO.P,U8,5,2Y1_5*%
%TO.N,/D5*%
X234995745Y-30970114D03*
%TO.P,U8,6,1A2_6*%
%TO.N,/GND*%
X232455745Y-30970114D03*
%TO.P,U8,7,2Y2_7*%
%TO.N,/D6*%
X229915745Y-30970114D03*
%TO.P,U8,8,1A3_8*%
%TO.N,/GND*%
X227375745Y-30970114D03*
%TO.P,U8,9,2Y3_9*%
%TO.N,/D7*%
X224835745Y-30970114D03*
%TO.P,U8,10,GND_10*%
%TO.N,/GND*%
X222295745Y-30970114D03*
%TO.P,U8,11,2A3_11*%
X222295745Y-38590114D03*
%TO.P,U8,12,1Y3_12*%
%TO.N,/D3*%
X224835745Y-38590114D03*
%TO.P,U8,13,2A2_13*%
%TO.N,/GND*%
X227375745Y-38590114D03*
%TO.P,U8,14,1Y2_14*%
%TO.N,/D2*%
X229915745Y-38590114D03*
%TO.P,U8,15,2A1_15*%
%TO.N,/GND*%
X232455745Y-38590114D03*
%TO.P,U8,16,1Y1_16*%
%TO.N,/D1*%
X234995745Y-38590114D03*
%TO.P,U8,17,2A0_17*%
%TO.N,/GND*%
X237535745Y-38590114D03*
%TO.P,U8,18,1Y0_18*%
%TO.N,/D0*%
X240075745Y-38590114D03*
%TO.P,U8,19,2OE_19*%
%TO.N,/~{STATUS_RD}*%
X242615745Y-38590114D03*
%TO.P,U8,20,VCC_20*%
%TO.N,/+5V*%
X245155745Y-38590114D03*
%TD*%
D11*
%TO.P,J9,1,Pin_1_1*%
%TO.N,/+5V*%
X110744000Y-53848000D03*
D12*
%TO.P,J9,2,Pin_2_2*%
%TO.N,/GND*%
X113284000Y-53848000D03*
%TO.P,J9,3,Pin_3_3*%
%TO.N,unconnected-(J9-Pin_3-Pad3)*%
X115824000Y-53848000D03*
%TO.P,J9,4,Pin_4_4*%
%TO.N,unconnected-(J9-Pin_4-Pad4)*%
X118364000Y-53848000D03*
%TO.P,J9,5,Pin_5_5*%
%TO.N,/SER_CLK*%
X120904000Y-53848000D03*
%TO.P,J9,6,Pin_6_6*%
%TO.N,/SER_IN*%
X123444000Y-53848000D03*
%TO.P,J9,7,Pin_7_7*%
%TO.N,/SER_OUT*%
X125984000Y-53848000D03*
%TO.P,J9,8,Pin_8_8*%
%TO.N,/~{CS_0}*%
X128524000Y-53848000D03*
%TO.P,J9,9,Pin_9_9*%
%TO.N,/~{SRESET}*%
X131064000Y-53848000D03*
%TO.P,J9,10,Pin_10_10*%
%TO.N,unconnected-(J9-Pin_10-Pad10)*%
X133604000Y-53848000D03*
%TO.P,J9,11,Pin_11_11*%
%TO.N,unconnected-(J9-Pin_11-Pad11)*%
X136144000Y-53848000D03*
%TO.P,J9,12,Pin_12_12*%
%TO.N,unconnected-(J9-Pin_12-Pad12)*%
X138684000Y-53848000D03*
%TO.P,J9,13,Pin_13_13*%
%TO.N,unconnected-(J9-Pin_13-Pad13)*%
X141224000Y-53848000D03*
%TO.P,J9,14,Pin_14_14*%
%TO.N,unconnected-(J9-Pin_14-Pad14)*%
X143764000Y-53848000D03*
%TO.P,J9,15,Pin_15_15*%
%TO.N,unconnected-(J9-Pin_15-Pad15)*%
X146304000Y-53848000D03*
%TD*%
D10*
%TO.P,C6,1*%
%TO.N,/+5V*%
X216702745Y-38526514D03*
%TO.P,C6,2*%
%TO.N,/GND*%
X219202745Y-38526514D03*
%TD*%
D13*
%TO.P,U5,1,OE_1*%
%TO.N,/GND*%
X245155745Y-54667314D03*
D10*
%TO.P,U5,2,O0_2*%
%TO.N,/~{SRESET}*%
X242615745Y-54667314D03*
%TO.P,U5,3,D0_3*%
%TO.N,/D0*%
X240075745Y-54667314D03*
%TO.P,U5,4,D1_4*%
%TO.N,/D1*%
X237535745Y-54667314D03*
%TO.P,U5,5,O1_5*%
%TO.N,/~{CS_0}*%
X234995745Y-54667314D03*
%TO.P,U5,6,O2_6*%
%TO.N,/~{CS_1}*%
X232455745Y-54667314D03*
%TO.P,U5,7,D2_7*%
%TO.N,/D2*%
X229915745Y-54667314D03*
%TO.P,U5,8,D3_8*%
%TO.N,/D3*%
X227375745Y-54667314D03*
%TO.P,U5,9,O3_9*%
%TO.N,/~{CS_2}*%
X224835745Y-54667314D03*
%TO.P,U5,10,GND_10*%
%TO.N,/GND*%
X222295745Y-54667314D03*
%TO.P,U5,11,LE_11*%
%TO.N,/CTRL_WR*%
X222295745Y-62287314D03*
%TO.P,U5,12,O4_12*%
%TO.N,/~{CS_3}*%
X224835745Y-62287314D03*
%TO.P,U5,13,D4_13*%
%TO.N,/D4*%
X227375745Y-62287314D03*
%TO.P,U5,14,D5_14*%
%TO.N,/D5*%
X229915745Y-62287314D03*
%TO.P,U5,15,O5_15*%
%TO.N,/~{CS_4}*%
X232455745Y-62287314D03*
%TO.P,U5,16,O6_16*%
%TO.N,/~{CS_5}*%
X234995745Y-62287314D03*
%TO.P,U5,17,D6_17*%
%TO.N,/D6*%
X237535745Y-62287314D03*
%TO.P,U5,18,D7_18*%
%TO.N,/D7*%
X240075745Y-62287314D03*
%TO.P,U5,19,O7_19*%
%TO.N,/~{CS_6}*%
X242615745Y-62287314D03*
%TO.P,U5,20,VCC_20*%
%TO.N,/+5V*%
X245155745Y-62287314D03*
%TD*%
%TO.P,U6,14,VCC_14*%
%TO.N,/+5V*%
X270423745Y-62287314D03*
%TO.P,U6,13,Q7_13*%
%TO.N,Net-(U6-Q7)*%
X267883745Y-62287314D03*
%TO.P,U6,12,Q6_12*%
%TO.N,Net-(U6-Q6)*%
X265343745Y-62287314D03*
%TO.P,U6,11,Q5_11*%
%TO.N,Net-(U6-Q5)*%
X262803745Y-62287314D03*
%TO.P,U6,10,Q4_10*%
%TO.N,Net-(U6-Q4)*%
X260263745Y-62287314D03*
%TO.P,U6,9,~{MR}_9*%
%TO.N,/~{DATA_WR}*%
X257723745Y-62287314D03*
%TO.P,U6,8,CP_8*%
%TO.N,/SER_CLK*%
X255183745Y-62287314D03*
%TO.P,U6,7,GND_7*%
%TO.N,/GND*%
X255183745Y-54667314D03*
%TO.P,U6,6,Q3_6*%
%TO.N,Net-(U6-Q3)*%
X257723745Y-54667314D03*
%TO.P,U6,5,Q2_5*%
%TO.N,Net-(U6-Q2)*%
X260263745Y-54667314D03*
%TO.P,U6,4,Q1_4*%
%TO.N,Net-(U6-Q1)*%
X262803745Y-54667314D03*
%TO.P,U6,3,Q0_3*%
%TO.N,Net-(U6-Q0)*%
X265343745Y-54667314D03*
%TO.P,U6,2,DSB_2*%
%TO.N,/SER_EN*%
X267883745Y-54667314D03*
D13*
%TO.P,U6,1,DSA_1*%
%TO.N,/SER_IN*%
X270423745Y-54667314D03*
%TD*%
%TO.P,U1,1*%
%TO.N,Net-(U1-Pad1)*%
X212262745Y-42781114D03*
D10*
%TO.P,U1,2*%
%TO.N,/~{RD}*%
X209722745Y-42781114D03*
%TO.P,U1,3*%
%TO.N,Net-(U3-~{Y4})*%
X207182745Y-42781114D03*
%TO.P,U1,4*%
%TO.N,/~{STATUS_RD}*%
X204642745Y-42781114D03*
%TO.P,U1,5*%
%TO.N,Net-(U1-Pad1)*%
X202102745Y-42781114D03*
%TO.P,U1,6*%
X199562745Y-42781114D03*
%TO.P,U1,7,GND_7*%
%TO.N,/GND*%
X197022745Y-42781114D03*
%TO.P,U1,8*%
%TO.N,/~{WR}*%
X197022745Y-50401114D03*
%TO.P,U1,9*%
%TO.N,Net-(U3-~{Y4})*%
X199562745Y-50401114D03*
%TO.P,U1,10*%
%TO.N,/CTRL_WR*%
X202102745Y-50401114D03*
%TO.P,U1,11*%
%TO.N,/~{SER_EN}*%
X204642745Y-50401114D03*
%TO.P,U1,12*%
%TO.N,/INT_CLK*%
X207182745Y-50401114D03*
%TO.P,U1,13*%
%TO.N,/SER_CLK*%
X209722745Y-50401114D03*
%TO.P,U1,14,VCC_14*%
%TO.N,/+5V*%
X212262745Y-50401114D03*
%TD*%
%TO.P,C8,2*%
%TO.N,/GND*%
X276098745Y-62307314D03*
%TO.P,C8,1*%
%TO.N,/+5V*%
X273598745Y-62307314D03*
%TD*%
D14*
%TO.N,/D4*%
X246253745Y-41422314D03*
X246761745Y-57969314D03*
%TO.N,Net-(U4A-D)*%
X267843745Y-28505314D03*
%TO.N,/~{STATUS_RD}*%
X204978745Y-36252314D03*
X244856745Y-36125314D03*
%TO.N,/~{SER_EN}*%
X241925745Y-47206314D03*
X194183745Y-49333314D03*
%TO.N,Net-(U3-~{Y4})*%
X207137745Y-52254314D03*
%TO.N,Net-(U3-~{Y5})*%
X207137745Y-59964314D03*
%TO.N,/CTRL_WR*%
X200914745Y-58731314D03*
%TO.N,/~{DATA_RD}*%
X243205745Y-58477314D03*
%TO.N,/SER_OUT*%
X220853745Y-71251314D03*
%TO.N,Net-(U10-Q7)*%
X222885745Y-34437314D03*
X253074745Y-34728314D03*
%TO.N,/D0*%
X221996745Y-28473314D03*
X221996745Y-24139406D03*
%TO.N,/SER_EN*%
X252349745Y-29648314D03*
X252349745Y-56953314D03*
%TO.N,/DATA_WR*%
X202057745Y-24589406D03*
%TO.N,/~{DATA_WR}*%
X213614745Y-16801114D03*
X272796745Y-60636314D03*
%TO.N,Net-(JP3-A)*%
X259207745Y-29521314D03*
%TO.N,/A3*%
X208661745Y-35337314D03*
%TO.N,/A2*%
X211074745Y-34887314D03*
%TO.N,/A1*%
X213537745Y-34437314D03*
%TO.N,/~{RD}*%
X186944745Y-53524314D03*
%TO.N,/~{WR}*%
X186985006Y-50401114D03*
%TO.N,/~{CS_6}*%
X274066745Y-65589314D03*
%TO.N,/~{CS_5}*%
X245110745Y-66097314D03*
X234950745Y-66097314D03*
%TO.N,/~{CS_4}*%
X232410745Y-66732314D03*
X216281745Y-66880314D03*
%TO.N,/~{CS_3}*%
X187325745Y-67605314D03*
X224536745Y-67605314D03*
%TO.N,/~{CS_2}*%
X225933745Y-68330314D03*
X158242745Y-68330314D03*
%TO.N,/~{CS_1}*%
X129921745Y-69018314D03*
X231140745Y-69055314D03*
%TO.N,/~{CS_0}*%
X128524745Y-69907314D03*
X233299745Y-69780314D03*
%TO.N,/~{SRESET}*%
X240411745Y-70526314D03*
X131064745Y-70526314D03*
%TO.N,/SER_OUT*%
X155829745Y-71251314D03*
%TO.N,/SER_IN*%
X153162745Y-71976314D03*
%TO.N,/SER_OUT*%
X184785745Y-71251314D03*
%TO.N,/SER_IN*%
X182372745Y-71976314D03*
%TO.N,/SER_OUT*%
X213868745Y-71251314D03*
%TO.N,/SER_IN*%
X211201745Y-71976314D03*
X240411745Y-71976314D03*
%TO.N,/SER_OUT*%
X242951745Y-71251314D03*
X125984000Y-71251314D03*
X271833745Y-71251314D03*
%TO.N,/SER_CLK*%
X255143745Y-72701314D03*
%TO.N,/SER_IN*%
X269621745Y-72066314D03*
X123444000Y-71976314D03*
%TO.N,/SER_CLK*%
X237871745Y-72701314D03*
X208661745Y-72701314D03*
X179578745Y-72701314D03*
X150495745Y-72701314D03*
X266446745Y-72701314D03*
X120904745Y-72701314D03*
%TO.N,/D0*%
X240919745Y-28378314D03*
%TO.N,Net-(U6-Q4)*%
X258699745Y-51783314D03*
%TO.N,Net-(U6-Q5)*%
X261239745Y-52508314D03*
%TO.N,Net-(U6-Q6)*%
X270383745Y-47809314D03*
%TO.N,Net-(U6-Q7)*%
X267716745Y-47936314D03*
%TO.N,Net-(U6-Q3)*%
X257683745Y-47227314D03*
%TO.N,Net-(U6-Q2)*%
X260223745Y-46502314D03*
%TO.N,Net-(U6-Q1)*%
X262636745Y-45777314D03*
%TO.N,Net-(U6-Q0)*%
X265176745Y-45015314D03*
%TO.N,/D7*%
X223774745Y-57334314D03*
X238760745Y-57969314D03*
%TO.N,/D6*%
X237109745Y-56953314D03*
X228854745Y-56699314D03*
%TO.N,/D5*%
X230124745Y-56064314D03*
X238760745Y-56064314D03*
%TO.N,/D1*%
X233553745Y-27616314D03*
%TO.N,/D3*%
X225044745Y-32696314D03*
X236093745Y-32696314D03*
%TD*%
%TO.N,Net-(U2-Pad1)*%
D15*
X202102745Y-54667314D02*
X203227745Y-53542314D01*
X203227745Y-53542314D02*
X205398736Y-53542314D01*
X205398736Y-53542314D02*
X206057745Y-54201323D01*
X206057745Y-54201323D02*
X206057745Y-55133305D01*
X206057745Y-55133305D02*
X206716754Y-55792314D01*
X206716754Y-55792314D02*
X211137745Y-55792314D01*
X211137745Y-55792314D02*
X212262745Y-54667314D01*
%TO.N,/~{RD}*%
X186944745Y-53524314D02*
X187452745Y-53016314D01*
X187452745Y-53016314D02*
X208071745Y-53016314D01*
X208071745Y-53016314D02*
X209722745Y-54667314D01*
%TO.N,Net-(U2-Pad1)*%
X199562745Y-54667314D02*
X202102745Y-54667314D01*
%TO.N,/D4*%
X241434545Y-41422314D02*
X240075745Y-42781114D01*
X227375745Y-62287314D02*
X230460745Y-59202314D01*
X230460745Y-59202314D02*
X245528745Y-59202314D01*
X246253745Y-41422314D02*
X241434545Y-41422314D01*
X245528745Y-59202314D02*
X246761745Y-57969314D01*
%TO.N,Net-(U4A-D)*%
X259057175Y-28505314D02*
X267843745Y-28505314D01*
X257723745Y-29838744D02*
X259057175Y-28505314D01*
X257723745Y-30970114D02*
X257723745Y-29838744D01*
%TO.N,Net-(U4B-D)*%
X255183745Y-38590114D02*
X256782945Y-40189314D01*
X256782945Y-40189314D02*
X263744545Y-40189314D01*
X263744545Y-40189314D02*
X265343745Y-38590114D01*
%TO.N,/~{STATUS_RD}*%
X240277945Y-36252314D02*
X204978745Y-36252314D01*
X242615745Y-38590114D02*
X240277945Y-36252314D01*
X244856745Y-36125314D02*
X244729745Y-36252314D01*
X244729745Y-36252314D02*
X244729745Y-36476114D01*
X244729745Y-36476114D02*
X242615745Y-38590114D01*
%TO.N,/~{SER_EN}*%
X207837545Y-47206314D02*
X241925745Y-47206314D01*
X204642745Y-50401114D02*
X207837545Y-47206314D01*
X194183745Y-49333314D02*
X194240945Y-49276114D01*
X194240945Y-49276114D02*
X203517745Y-49276114D01*
X203517745Y-49276114D02*
X204642745Y-50401114D01*
%TO.N,Net-(U3-~{Y4})*%
X207137745Y-52254314D02*
X201415945Y-52254314D01*
X201415945Y-52254314D02*
X199562745Y-50401114D01*
X200837745Y-38590114D02*
X201962745Y-39715114D01*
X201962745Y-39715114D02*
X204116745Y-39715114D01*
X204116745Y-39715114D02*
X207182745Y-42781114D01*
%TO.N,Net-(U1-Pad1)*%
X202102745Y-42781114D02*
X204209945Y-44888314D01*
X204209945Y-44888314D02*
X210155545Y-44888314D01*
X210155545Y-44888314D02*
X212262745Y-42781114D01*
X199562745Y-42781114D02*
X202102745Y-42781114D01*
%TO.N,Net-(U3-~{Y5})*%
X199345745Y-59964314D02*
X197022745Y-62287314D01*
X207137745Y-59964314D02*
X199345745Y-59964314D01*
%TO.N,/CTRL_WR*%
X222295745Y-62287314D02*
X219247745Y-59239314D01*
X219247745Y-59239314D02*
X201422745Y-59239314D01*
X201422745Y-59239314D02*
X200914745Y-58731314D01*
%TO.N,/~{DATA_RD}*%
X242988745Y-58694314D02*
X208669745Y-58694314D01*
X243205745Y-58477314D02*
X242988745Y-58694314D01*
X208669745Y-58694314D02*
X204642745Y-54667314D01*
%TO.N,/SER_OUT*%
X220853745Y-71251314D02*
X271833745Y-71251314D01*
%TO.N,Net-(U10-Q7)*%
X253074745Y-34728314D02*
X223176745Y-34728314D01*
X223176745Y-34728314D02*
X222885745Y-34437314D01*
%TO.N,/D0*%
X240919745Y-28378314D02*
X240478745Y-28819314D01*
X240478745Y-28819314D02*
X240422745Y-28819314D01*
X240422745Y-28819314D02*
X222342745Y-28819314D01*
X222342745Y-28819314D02*
X221996745Y-28473314D01*
%TO.N,/DATA_WR*%
X238005545Y-28341314D02*
X222890049Y-28341314D01*
X240075745Y-26271114D02*
X238005545Y-28341314D01*
X222890049Y-28341314D02*
X221944849Y-27396114D01*
X221944849Y-27396114D02*
X212122745Y-27396114D01*
X212122745Y-27396114D02*
X210997745Y-26271114D01*
%TO.N,Net-(U11-DS)*%
X198297745Y-26271114D02*
X201351945Y-29325314D01*
X201351945Y-29297314D02*
X250864545Y-29297314D01*
X250864545Y-29325314D02*
X253918745Y-26271114D01*
%TO.N,/SER_EN*%
X195757745Y-26271114D02*
X199261945Y-29775314D01*
X199261945Y-29775314D02*
X252222745Y-29775314D01*
X252222745Y-29775314D02*
X252349745Y-29648314D01*
%TO.N,/D0*%
X221996745Y-24139406D02*
X221763745Y-24139406D01*
X221763745Y-24139406D02*
X221488745Y-23864406D01*
X174353298Y-19989406D02*
X178228298Y-23864406D01*
X178228298Y-23864406D02*
X221488745Y-23864406D01*
%TO.N,/DATA_WR*%
X269158745Y-26271114D02*
X267836945Y-24949314D01*
X267836945Y-24949314D02*
X241397545Y-24949314D01*
X241397545Y-24949314D02*
X240075745Y-26271114D01*
%TO.N,/SER_EN*%
X252349745Y-56953314D02*
X265597745Y-56953314D01*
X265597745Y-56953314D02*
X267883745Y-54667314D01*
%TO.N,/DATA_WR*%
X202057745Y-24589406D02*
X209316037Y-24589406D01*
X209316037Y-24589406D02*
X210997745Y-26271114D01*
X207182745Y-62287314D02*
X204642745Y-62287314D01*
X202102745Y-62287314D02*
X204642745Y-62287314D01*
%TO.N,/~{DATA_WR}*%
X242615745Y-18651114D02*
X241039945Y-17075314D01*
X241039945Y-17075314D02*
X213888945Y-17075314D01*
X213888945Y-17075314D02*
X213614745Y-16801114D01*
X271698745Y-18651114D02*
X270503945Y-17456314D01*
X270503945Y-17456314D02*
X243810545Y-17456314D01*
X243810545Y-17456314D02*
X242615745Y-18651114D01*
X259374745Y-60636314D02*
X272796745Y-60636314D01*
X257723745Y-62287314D02*
X259374745Y-60636314D01*
%TO.N,Net-(JP3-A)*%
X283978545Y-29395114D02*
X259333945Y-29395114D01*
X259333945Y-29395114D02*
X259207745Y-29521314D01*
X290322745Y-35739314D02*
X283978545Y-29395114D01*
%TO.N,Net-(JP2-A)*%
X290322745Y-39554314D02*
X280613545Y-29845114D01*
X280613545Y-29845114D02*
X261388745Y-29845114D01*
X261388745Y-29845114D02*
X260263745Y-30970114D01*
%TO.N,/INT_CLK*%
X240075745Y-18651114D02*
X238950745Y-17526114D01*
X238950745Y-17526114D02*
X212122745Y-17526114D01*
X212122745Y-17526114D02*
X210997745Y-18651114D01*
X269158745Y-18651114D02*
X268033745Y-19776114D01*
X241200745Y-19776114D02*
X240075745Y-18651114D01*
X268033745Y-19776114D02*
X241200745Y-19776114D01*
X292867745Y-43364314D02*
X291692745Y-44539314D01*
X291692745Y-44539314D02*
X270916945Y-44539314D01*
X270916945Y-44539314D02*
X269158745Y-42781114D01*
%TO.N,/A3*%
X208433745Y-35109314D02*
X208661745Y-35337314D01*
X151441314Y-35109314D02*
X208433745Y-35109314D01*
X136398000Y-20066000D02*
X151441314Y-35109314D01*
%TO.N,/A2*%
X211074745Y-34612314D02*
X211074745Y-34887314D01*
X153484314Y-34612314D02*
X211074745Y-34612314D01*
X138938000Y-20066000D02*
X153484314Y-34612314D01*
%TO.N,/A1*%
X213537745Y-34437314D02*
X213487745Y-34437314D01*
X213212745Y-34162314D02*
X155574314Y-34162314D01*
X213487745Y-34437314D02*
X213212745Y-34162314D01*
X155574314Y-34162314D02*
X141478000Y-20066000D01*
%TO.N,/~{IORQ}*%
X161653298Y-19989406D02*
X162828298Y-18814406D01*
X162828298Y-18814406D02*
X167219999Y-18814406D01*
X167219999Y-18814406D02*
X167908298Y-19502705D01*
X167908298Y-19502705D02*
X167908298Y-20476107D01*
X167908298Y-20476107D02*
X167882346Y-20502059D01*
X167882346Y-20502059D02*
X180642602Y-33262314D01*
X180642602Y-33262314D02*
X201237745Y-33262314D01*
X201237745Y-33262314D02*
X203377745Y-31122314D01*
X203377745Y-31122314D02*
X203377745Y-30970114D01*
%TO.N,/~{WR}*%
X186985006Y-50401114D02*
X197022745Y-50401114D01*
%TO.N,/~{IORQ}*%
X203377745Y-30970114D02*
X205917745Y-30970114D01*
%TO.N,/CLK*%
X265343745Y-30970114D02*
X268085945Y-33712314D01*
X268085945Y-33712314D02*
X280675745Y-33712314D01*
X280675745Y-33712314D02*
X290327745Y-43364314D01*
X166733298Y-19989406D02*
X180456206Y-33712314D01*
X262601545Y-33712314D02*
X265343745Y-30970114D01*
X180456206Y-33712314D02*
X262601545Y-33712314D01*
%TO.N,/~{CS_6}*%
X274066745Y-65589314D02*
X273812745Y-65335314D01*
X273812745Y-65335314D02*
X245663745Y-65335314D01*
X245663745Y-65335314D02*
X242615745Y-62287314D01*
%TO.N,/~{CS_5}*%
X234950745Y-66097314D02*
X245110745Y-66097314D01*
%TO.N,/~{CS_4}*%
X232262745Y-66880314D02*
X232410745Y-66732314D01*
X216281745Y-66880314D02*
X232262745Y-66880314D01*
%TO.N,/~{CS_3}*%
X224536745Y-67605314D02*
X187325745Y-67605314D01*
%TO.N,/~{CS_2}*%
X158242745Y-68330314D02*
X225933745Y-68330314D01*
%TO.N,/~{CS_1}*%
X129958745Y-69055314D02*
X129921745Y-69018314D01*
X231140745Y-69055314D02*
X129958745Y-69055314D01*
%TO.N,/~{CS_0}*%
X128651745Y-69780314D02*
X233299745Y-69780314D01*
X128524745Y-69907314D02*
X128651745Y-69780314D01*
%TO.N,/~{SRESET}*%
X131064745Y-70526314D02*
X240411745Y-70526314D01*
%TO.N,/SER_OUT*%
X155829745Y-71251314D02*
X184785745Y-71251314D01*
%TO.N,/SER_IN*%
X123444000Y-71976314D02*
X153162745Y-71976314D01*
%TO.N,/SER_OUT*%
X125984000Y-71251314D02*
X155829745Y-71251314D01*
%TO.N,/SER_IN*%
X153162745Y-71976314D02*
X182372745Y-71976314D01*
%TO.N,/SER_OUT*%
X184785745Y-71251314D02*
X213868745Y-71251314D01*
%TO.N,/SER_IN*%
X182372745Y-71976314D02*
X211201745Y-71976314D01*
X211201745Y-71976314D02*
X240411745Y-71976314D01*
%TO.N,/SER_OUT*%
X213868745Y-71251314D02*
X220853745Y-71251314D01*
X271907745Y-71177314D02*
X271833745Y-71251314D01*
%TO.N,/SER_CLK*%
X255778745Y-72701314D02*
X266446745Y-72701314D01*
%TO.N,/SER_IN*%
X269531745Y-71976314D02*
X269621745Y-72066314D01*
X240411745Y-71976314D02*
X269531745Y-71976314D01*
%TO.N,/SER_CLK*%
X208661745Y-72701314D02*
X237871745Y-72701314D01*
X237871745Y-72701314D02*
X255778745Y-72701314D01*
X150495745Y-72701314D02*
X179578745Y-72701314D01*
X120904745Y-72701314D02*
X150495745Y-72701314D01*
X179578745Y-72701314D02*
X208661745Y-72701314D01*
%TO.N,/D0*%
X240075745Y-38590114D02*
X242182945Y-40697314D01*
X242182945Y-40697314D02*
X256914945Y-40697314D01*
X256914945Y-40697314D02*
X258998745Y-42781114D01*
%TO.N,Net-(U6-Q7)*%
X222295745Y-50401114D02*
X224125545Y-48571314D01*
X228765149Y-48375314D02*
X265847349Y-48375314D01*
X224125545Y-48571314D02*
X228569149Y-48571314D01*
X228569149Y-48571314D02*
X228765149Y-48375314D01*
X265847349Y-48375314D02*
X266011349Y-48211314D01*
X266011349Y-48211314D02*
X267441745Y-48211314D01*
X267441745Y-48211314D02*
X267716745Y-47936314D01*
%TO.N,Net-(U6-Q6)*%
X227375745Y-50401114D02*
X228951545Y-48825314D01*
X228951545Y-48825314D02*
X266033745Y-48825314D01*
X266033745Y-48825314D02*
X266197745Y-48661314D01*
X266197745Y-48661314D02*
X269531745Y-48661314D01*
X269531745Y-48661314D02*
X270383745Y-47809314D01*
%TO.N,Net-(U6-Q3)*%
X227375745Y-42781114D02*
X231006945Y-46412314D01*
X235450549Y-46412314D02*
X235519549Y-46481314D01*
X231006945Y-46412314D02*
X235450549Y-46412314D01*
X235519549Y-46481314D02*
X256937745Y-46481314D01*
X256937745Y-46481314D02*
X257683745Y-47227314D01*
%TO.N,Net-(U6-Q2)*%
X232455745Y-42781114D02*
X235705945Y-46031314D01*
X235705945Y-46031314D02*
X259752745Y-46031314D01*
X259752745Y-46031314D02*
X260223745Y-46502314D01*
%TO.N,Net-(U6-Q1)*%
X237535745Y-42781114D02*
X240277945Y-45523314D01*
X240277945Y-45523314D02*
X262382745Y-45523314D01*
X262382745Y-45523314D02*
X262636745Y-45777314D01*
%TO.N,Net-(U6-Q4)*%
X238917945Y-51783314D02*
X258699745Y-51783314D01*
X237535745Y-50401114D02*
X238917945Y-51783314D01*
%TO.N,Net-(U6-Q5)*%
X234562945Y-52508314D02*
X261239745Y-52508314D01*
X232455745Y-50401114D02*
X234562945Y-52508314D01*
%TO.N,Net-(U6-Q0)*%
X265176745Y-45015314D02*
X244849945Y-45015314D01*
X244849945Y-45015314D02*
X242615745Y-42781114D01*
%TO.N,Net-(J4-Pin_1)*%
X293370745Y-55800335D02*
X289806558Y-55800335D01*
%TO.N,Net-(J4-Pin_2)*%
X289806558Y-58340335D02*
X293370745Y-58340335D01*
%TO.N,Net-(J4-Pin_3)*%
X293370745Y-60880335D02*
X289806558Y-60880335D01*
%TO.N,Net-(J4-Pin_4)*%
X289806558Y-63420335D02*
X293370745Y-63420335D01*
%TO.N,Net-(J4-Pin_5)*%
X293370745Y-65960335D02*
X289806558Y-65960335D01*
%TO.N,Net-(J4-Pin_6)*%
X289806558Y-68500335D02*
X293370745Y-68500335D01*
%TO.N,Net-(J4-Pin_7)*%
X293370745Y-71040335D02*
X289806558Y-71040335D01*
%TO.N,Net-(J4-Pin_8)*%
X289806558Y-73580335D02*
X293370745Y-73580335D01*
%TO.N,Net-(J4-Pin_9)*%
X293370745Y-76120335D02*
X289806558Y-76120335D01*
%TO.N,Net-(J4-Pin_10)*%
X289806558Y-78660335D02*
X293370745Y-78660335D01*
%TO.N,Net-(J6-Pin_10)*%
X283718745Y-78660335D02*
X287265073Y-78660335D01*
%TO.N,Net-(J6-Pin_9)*%
X283718745Y-76120335D02*
X287265073Y-76120335D01*
%TO.N,Net-(J6-Pin_8)*%
X283718745Y-73580335D02*
X287265073Y-73580335D01*
%TO.N,Net-(J6-Pin_7)*%
X283718745Y-71040335D02*
X287265073Y-71040335D01*
%TO.N,Net-(J6-Pin_6)*%
X283718745Y-68500335D02*
X287265073Y-68500335D01*
%TO.N,Net-(J6-Pin_5)*%
X283718745Y-65960335D02*
X287265073Y-65960335D01*
%TO.N,Net-(J6-Pin_4)*%
X283718745Y-63420335D02*
X287265073Y-63420335D01*
%TO.N,Net-(J6-Pin_3)*%
X283718745Y-60880335D02*
X287265073Y-60880335D01*
%TO.N,Net-(J6-Pin_2)*%
X283718745Y-58340335D02*
X287265073Y-58340335D01*
%TO.N,Net-(J6-Pin_1)*%
X283718745Y-55800335D02*
X287265073Y-55800335D01*
%TO.N,/D7*%
X192133298Y-19989406D02*
X192858298Y-20714406D01*
X192858298Y-20714406D02*
X230392453Y-20714406D01*
X230392453Y-20714406D02*
X232455745Y-18651114D01*
X223774745Y-57334314D02*
X224409745Y-57969314D01*
X224409745Y-57969314D02*
X238760745Y-57969314D01*
%TO.N,/D6*%
X228854745Y-56699314D02*
X229108745Y-56953314D01*
X229108745Y-56953314D02*
X237236745Y-56953314D01*
%TO.N,/D5*%
X238760745Y-56064314D02*
X230124745Y-56064314D01*
X229997745Y-56191314D02*
X230124745Y-56064314D01*
%TO.N,/D1*%
X231260945Y-27616314D02*
X233553745Y-27616314D01*
X229915745Y-26271114D02*
X231260945Y-27616314D01*
X233553745Y-27616314D02*
X233516050Y-27578619D01*
%TO.N,/D3*%
X236093745Y-32696314D02*
X225044745Y-32696314D01*
%TO.N,/D1*%
X176893298Y-19989406D02*
X180318298Y-23414406D01*
X180318298Y-23414406D02*
X227059037Y-23414406D01*
X227059037Y-23414406D02*
X229915745Y-26271114D01*
%TO.N,/D2*%
X232455745Y-26271114D02*
X229149037Y-22964406D01*
X229149037Y-22964406D02*
X182408298Y-22964406D01*
X182408298Y-22964406D02*
X179433298Y-19989406D01*
%TO.N,/D3*%
X181973298Y-19989406D02*
X184498298Y-22514406D01*
X184498298Y-22514406D02*
X231239037Y-22514406D01*
X231239037Y-22514406D02*
X234995745Y-26271114D01*
%TO.N,/D4*%
X237535745Y-26271114D02*
X233329037Y-22064406D01*
X233329037Y-22064406D02*
X186588298Y-22064406D01*
X186588298Y-22064406D02*
X184513298Y-19989406D01*
%TO.N,/D5*%
X187053298Y-19989406D02*
X188678298Y-21614406D01*
X188678298Y-21614406D02*
X234572453Y-21614406D01*
X234572453Y-21614406D02*
X237535745Y-18651114D01*
%TO.N,/D6*%
X234995745Y-18651114D02*
X232482453Y-21164406D01*
X190768298Y-21164406D02*
X189593298Y-19989406D01*
X232482453Y-21164406D02*
X190768298Y-21164406D01*
%TD*%
M02*
