%TF.GenerationSoftware,KiCad,Pcbnew,7.0.10*%
%TF.CreationDate,2026-01-31T08:40:57+00:00*%
%TF.ProjectId,BeanBoardSPI,4265616e-426f-4617-9264-5350492e6b69,rev?*%
%TF.SameCoordinates,Original*%
%TF.FileFunction,Soldermask,Top*%
%TF.FilePolarity,Negative*%
%FSLAX46Y46*%
G04 Gerber Fmt 4.6, Leading zero omitted, Abs format (unit mm)*
G04 Created by KiCad (PCBNEW 7.0.10) date 2026-01-31 08:40:57*
%MOMM*%
%LPD*%
G01*
G04 APERTURE LIST*
%ADD10R,1.700000X1.700000*%
%ADD11O,1.700000X1.700000*%
%ADD12C,1.600000*%
%ADD13R,1.600000X1.600000*%
%ADD14O,1.600000X1.600000*%
G04 APERTURE END LIST*
D10*
%TO.C,J3*%
X154033298Y-19989406D03*
D11*
X156573298Y-19989406D03*
X159113298Y-19989406D03*
X161653298Y-19989406D03*
X164193298Y-19989406D03*
X166733298Y-19989406D03*
X169273298Y-19989406D03*
X171813298Y-19989406D03*
X174353298Y-19989406D03*
X176893298Y-19989406D03*
X179433298Y-19989406D03*
X181973298Y-19989406D03*
X184513298Y-19989406D03*
X187053298Y-19989406D03*
X189593298Y-19989406D03*
X192133298Y-19989406D03*
%TD*%
D10*
%TO.C,J2*%
X144018000Y-20066000D03*
D11*
X141478000Y-20066000D03*
X138938000Y-20066000D03*
X136398000Y-20066000D03*
X133858000Y-20066000D03*
X131318000Y-20066000D03*
X128778000Y-20066000D03*
X126238000Y-20066000D03*
X123698000Y-20066000D03*
X121158000Y-20066000D03*
X118618000Y-20066000D03*
X116078000Y-20066000D03*
X113538000Y-20066000D03*
X110998000Y-20066000D03*
X108458000Y-20066000D03*
X105918000Y-20066000D03*
%TD*%
D10*
%TO.C,J1*%
X288805334Y-19986097D03*
D11*
X291345334Y-19986097D03*
X293885334Y-19986097D03*
%TD*%
D10*
%TO.C,J13*%
X287265073Y-55800335D03*
D11*
X287265073Y-58340335D03*
X287265073Y-60880335D03*
X287265073Y-63420335D03*
X287265073Y-65960335D03*
X287265073Y-68500335D03*
X287265073Y-71040335D03*
X287265073Y-73580335D03*
X287265073Y-76120335D03*
X287265073Y-78660335D03*
%TD*%
D10*
%TO.C,J12*%
X289806558Y-55800335D03*
D11*
X289806558Y-58340335D03*
X289806558Y-60880335D03*
X289806558Y-63420335D03*
X289806558Y-65960335D03*
X289806558Y-68500335D03*
X289806558Y-71040335D03*
X289806558Y-73580335D03*
X289806558Y-76120335D03*
X289806558Y-78660335D03*
%TD*%
D10*
%TO.C,J11*%
X293370745Y-55800335D03*
D11*
X293370745Y-58340335D03*
X293370745Y-60880335D03*
X293370745Y-63420335D03*
X293370745Y-65960335D03*
X293370745Y-68500335D03*
X293370745Y-71040335D03*
X293370745Y-73580335D03*
X293370745Y-76120335D03*
X293370745Y-78660335D03*
%TD*%
D12*
%TO.C,C9*%
X238252745Y-40062314D03*
X240752745Y-40062314D03*
%TD*%
D10*
%TO.C,JP2*%
X290322745Y-39554314D03*
D11*
X292862745Y-39554314D03*
%TD*%
D10*
%TO.C,J6*%
X142968504Y-82734314D03*
D11*
X145508504Y-82734314D03*
X148048504Y-82734314D03*
X150588504Y-82734314D03*
X153128504Y-82734314D03*
X155668504Y-82734314D03*
X158208504Y-82734314D03*
%TD*%
D13*
%TO.C,U1*%
X233088077Y-43359314D03*
D14*
X233088077Y-45899314D03*
X233088077Y-48439314D03*
X233088077Y-50979314D03*
X233088077Y-53519314D03*
X233088077Y-56059314D03*
X233088077Y-58599314D03*
X233088077Y-61139314D03*
X240708077Y-61139314D03*
X240708077Y-58599314D03*
X240708077Y-56059314D03*
X240708077Y-53519314D03*
X240708077Y-50979314D03*
X240708077Y-48439314D03*
X240708077Y-45899314D03*
X240708077Y-43359314D03*
%TD*%
D10*
%TO.C,J15*%
X288798745Y-23552314D03*
D11*
X291338745Y-23552314D03*
X293878745Y-23552314D03*
%TD*%
D13*
%TO.C,U8*%
X180383078Y-35241314D03*
D14*
X180383078Y-37781314D03*
X180383078Y-40321314D03*
X180383078Y-42861314D03*
X180383078Y-45401314D03*
X180383078Y-47941314D03*
X180383078Y-50481314D03*
X188003078Y-50481314D03*
X188003078Y-47941314D03*
X188003078Y-45401314D03*
X188003078Y-42861314D03*
X188003078Y-40321314D03*
X188003078Y-37781314D03*
X188003078Y-35241314D03*
%TD*%
D12*
%TO.C,C10*%
X255798745Y-40062314D03*
X258298745Y-40062314D03*
%TD*%
D10*
%TO.C,J9*%
X230239434Y-82734314D03*
D11*
X232779434Y-82734314D03*
X235319434Y-82734314D03*
X237859434Y-82734314D03*
X240399434Y-82734314D03*
X242939434Y-82734314D03*
X245479434Y-82734314D03*
%TD*%
D13*
%TO.C,U4*%
X215519744Y-31441314D03*
D14*
X215519744Y-33981314D03*
X215519744Y-36521314D03*
X215519744Y-39061314D03*
X215519744Y-41601314D03*
X215519744Y-44141314D03*
X215519744Y-46681314D03*
X215519744Y-49221314D03*
X215519744Y-51761314D03*
X215519744Y-54301314D03*
X223139744Y-54301314D03*
X223139744Y-51761314D03*
X223139744Y-49221314D03*
X223139744Y-46681314D03*
X223139744Y-44141314D03*
X223139744Y-41601314D03*
X223139744Y-39061314D03*
X223139744Y-36521314D03*
X223139744Y-33981314D03*
X223139744Y-31441314D03*
%TD*%
D13*
%TO.C,U5*%
X268224745Y-44634314D03*
D14*
X268224745Y-47174314D03*
X268224745Y-49714314D03*
X268224745Y-52254314D03*
X268224745Y-54794314D03*
X268224745Y-57334314D03*
X268224745Y-59874314D03*
X275844745Y-59874314D03*
X275844745Y-57334314D03*
X275844745Y-54794314D03*
X275844745Y-52254314D03*
X275844745Y-49714314D03*
X275844745Y-47174314D03*
X275844745Y-44634314D03*
%TD*%
D10*
%TO.C,J7*%
X172058814Y-82734314D03*
D11*
X174598814Y-82734314D03*
X177138814Y-82734314D03*
X179678814Y-82734314D03*
X182218814Y-82734314D03*
X184758814Y-82734314D03*
X187298814Y-82734314D03*
%TD*%
D12*
%TO.C,C6*%
X273304745Y-17202314D03*
X275804745Y-17202314D03*
%TD*%
D13*
%TO.C,U9*%
X268224745Y-20504314D03*
D14*
X268224745Y-23044314D03*
X268224745Y-25584314D03*
X268224745Y-28124314D03*
X268224745Y-30664314D03*
X268224745Y-33204314D03*
X268224745Y-35744314D03*
X275844745Y-35744314D03*
X275844745Y-33204314D03*
X275844745Y-30664314D03*
X275844745Y-28124314D03*
X275844745Y-25584314D03*
X275844745Y-23044314D03*
X275844745Y-20504314D03*
%TD*%
D10*
%TO.C,J10*%
X259329745Y-82734314D03*
D11*
X261869745Y-82734314D03*
X264409745Y-82734314D03*
X266949745Y-82734314D03*
X269489745Y-82734314D03*
X272029745Y-82734314D03*
X274569745Y-82734314D03*
%TD*%
D10*
%TO.C,J14*%
X283718745Y-55800335D03*
D11*
X283718745Y-58340335D03*
X283718745Y-60880335D03*
X283718745Y-63420335D03*
X283718745Y-65960335D03*
X283718745Y-68500335D03*
X283718745Y-71040335D03*
X283718745Y-73580335D03*
X283718745Y-76120335D03*
X283718745Y-78660335D03*
%TD*%
D12*
%TO.C,C2*%
X203220745Y-28124314D03*
X205720745Y-28124314D03*
%TD*%
D13*
%TO.C,U2*%
X197951411Y-31441314D03*
D14*
X197951411Y-33981314D03*
X197951411Y-36521314D03*
X197951411Y-39061314D03*
X197951411Y-41601314D03*
X197951411Y-44141314D03*
X197951411Y-46681314D03*
X197951411Y-49221314D03*
X197951411Y-51761314D03*
X197951411Y-54301314D03*
X205571411Y-54301314D03*
X205571411Y-51761314D03*
X205571411Y-49221314D03*
X205571411Y-46681314D03*
X205571411Y-44141314D03*
X205571411Y-41601314D03*
X205571411Y-39061314D03*
X205571411Y-36521314D03*
X205571411Y-33981314D03*
X205571411Y-31441314D03*
%TD*%
D13*
%TO.C,U3*%
X250656410Y-43359314D03*
D14*
X250656410Y-45899314D03*
X250656410Y-48439314D03*
X250656410Y-50979314D03*
X250656410Y-53519314D03*
X250656410Y-56059314D03*
X250656410Y-58599314D03*
X250656410Y-61139314D03*
X258276410Y-61139314D03*
X258276410Y-58599314D03*
X258276410Y-56059314D03*
X258276410Y-53519314D03*
X258276410Y-50979314D03*
X258276410Y-48439314D03*
X258276410Y-45899314D03*
X258276410Y-43359314D03*
%TD*%
D10*
%TO.C,J8*%
X201149124Y-82734314D03*
D11*
X203689124Y-82734314D03*
X206229124Y-82734314D03*
X208769124Y-82734314D03*
X211309124Y-82734314D03*
X213849124Y-82734314D03*
X216389124Y-82734314D03*
%TD*%
D10*
%TO.C,JP1*%
X290327745Y-43364314D03*
D11*
X292867745Y-43364314D03*
%TD*%
D13*
%TO.C,U7*%
X233088077Y-20504314D03*
D14*
X233088077Y-23044314D03*
X233088077Y-25584314D03*
X233088077Y-28124314D03*
X233088077Y-30664314D03*
X233088077Y-33204314D03*
X233088077Y-35744314D03*
X240708077Y-35744314D03*
X240708077Y-33204314D03*
X240708077Y-30664314D03*
X240708077Y-28124314D03*
X240708077Y-25584314D03*
X240708077Y-23044314D03*
X240708077Y-20504314D03*
%TD*%
D10*
%TO.C,JP3*%
X290322745Y-35739314D03*
D11*
X292862745Y-35739314D03*
%TD*%
D12*
%TO.C,C4*%
X273324745Y-41332314D03*
X275824745Y-41332314D03*
%TD*%
%TO.C,C7*%
X167894745Y-30664314D03*
X170394745Y-30664314D03*
%TD*%
D13*
%TO.C,U6*%
X250656410Y-20504314D03*
D14*
X250656410Y-23044314D03*
X250656410Y-25584314D03*
X250656410Y-28124314D03*
X250656410Y-30664314D03*
X250656410Y-33204314D03*
X250656410Y-35744314D03*
X258276410Y-35744314D03*
X258276410Y-33204314D03*
X258276410Y-30664314D03*
X258276410Y-28124314D03*
X258276410Y-25584314D03*
X258276410Y-23044314D03*
X258276410Y-20504314D03*
%TD*%
D12*
%TO.C,C5*%
X255778745Y-17202314D03*
X258278745Y-17202314D03*
%TD*%
D10*
%TO.C,J5*%
X113878194Y-82734314D03*
D11*
X116418194Y-82734314D03*
X118958194Y-82734314D03*
X121498194Y-82734314D03*
X124038194Y-82734314D03*
X126578194Y-82734314D03*
X129118194Y-82734314D03*
%TD*%
D10*
%TO.C,J4*%
X110744000Y-53848000D03*
D11*
X113284000Y-53848000D03*
X115824000Y-53848000D03*
X118364000Y-53848000D03*
X120904000Y-53848000D03*
X123444000Y-53848000D03*
X125984000Y-53848000D03*
X128524000Y-53848000D03*
X131064000Y-53848000D03*
X133604000Y-53848000D03*
X136144000Y-53848000D03*
X138684000Y-53848000D03*
X141224000Y-53848000D03*
X143764000Y-53848000D03*
X146304000Y-53848000D03*
%TD*%
D13*
%TO.C,U10*%
X162814745Y-33966314D03*
D14*
X162814745Y-36506314D03*
X162814745Y-39046314D03*
X162814745Y-41586314D03*
X162814745Y-44126314D03*
X162814745Y-46666314D03*
X162814745Y-49206314D03*
X162814745Y-51746314D03*
X170434745Y-51746314D03*
X170434745Y-49206314D03*
X170434745Y-46666314D03*
X170434745Y-44126314D03*
X170434745Y-41586314D03*
X170434745Y-39046314D03*
X170434745Y-36506314D03*
X170434745Y-33966314D03*
%TD*%
D12*
%TO.C,C1*%
X185694745Y-31934314D03*
X188194745Y-31934314D03*
%TD*%
%TO.C,C8*%
X220746745Y-28124314D03*
X223246745Y-28124314D03*
%TD*%
%TO.C,C3*%
X238252745Y-17202314D03*
X240752745Y-17202314D03*
%TD*%
M02*
